<mxfile host="app.diagrams.net" agent="Mozilla/5.0 (X11; Linux x86_64) AppleWebKit/537.36 (KHTML, like Gecko) Chrome/131.0.0.0 Safari/537.36" version="24.8.6">
  <diagram id="f106602c-feb2-e66a-4537-3a34d633f6aa" name="Page-1">
    <mxGraphModel dx="1886" dy="797" grid="1" gridSize="10" guides="1" tooltips="1" connect="0" arrows="0" fold="1" page="1" pageScale="1" pageWidth="1169" pageHeight="827" background="none" math="0" shadow="0">
      <root>
        <mxCell id="0" />
        <mxCell id="1" parent="0" />
        <mxCell id="HTIkX7PV5lFFl-K6tS0R-550" value="" style="whiteSpace=wrap;html=1;fillColor=none;" vertex="1" parent="1">
          <mxGeometry width="1170" height="660" as="geometry" />
        </mxCell>
        <mxCell id="HTIkX7PV5lFFl-K6tS0R-530" value="" style="rounded=0;whiteSpace=wrap;html=1;container=1;fillColor=none;fillStyle=auto;dashed=1;glass=0;strokeWidth=3;" vertex="1" parent="1">
          <mxGeometry x="220" y="30" width="800" height="600" as="geometry" />
        </mxCell>
        <mxCell id="HTIkX7PV5lFFl-K6tS0R-531" value="Google Cloud" style="shape=image;imageAspect=0;aspect=fixed;verticalLabelPosition=bottom;verticalAlign=top;image=data:image/svg+xml,PHN2ZyB4bWxucz0iaHR0cDovL3d3dy53My5vcmcvMjAwMC9zdmciIHZpZXdCb3g9IjAgMCAxMjggMTI4Ij48cGF0aCBkPSJNODAuNiA0MC4zaC40bC0uMi0uMiAxNC0xNHYtLjNjLTExLjgtMTAuNC0yOC4xLTE0LTQzLjItOS41QzM2LjUgMjAuOCAyNC45IDMyLjggMjAuNyA0OGMuMi0uMS41LS4yLjgtLjIgNS4yLTMuNCAxMS40LTUuNCAxNy45LTUuNCAyLjIgMCA0LjMuMiA2LjQuNi4xLS4xLjItLjEuMy0uMSA5LTkuOSAyNC4yLTExLjEgMzQuNi0yLjZoLS4xeiIgZmlsbD0iI2VhNDUzNSIvPjxwYXRoIGQ9Ik0xMDguMSA0Ny44Yy0yLjMtOC41LTcuMS0xNi4yLTEzLjgtMjIuMUw4MCAzOS45YzYgNC45IDkuNSAxMi4zIDkuMyAyMHYyLjVjMTYuOSAwIDE2LjkgMjUuMiAwIDI1LjJINjMuOXYyMGgtLjFsLjEuMmgyNS40YzE0LjYuMSAyNy41LTkuMyAzMS44LTIzLjEgNC4zLTEzLjgtMS0yOC44LTEzLTM2Ljl6IiBmaWxsPSIjNTU3ZWJmIi8+PHBhdGggZD0iTTM5IDEwNy45aDI2LjNWODcuN0gzOWMtMS45IDAtMy43LS40LTUuNC0xLjFsLTE1LjIgMTQuNnYuMmM2IDQuMyAxMy4yIDYuNiAyMC43IDYuNnoiIGZpbGw9IiMzNmE4NTIiLz48cGF0aCBkPSJNNDAuMiA0MS45Yy0xNC45LjEtMjguMSA5LjMtMzIuOSAyMi44LTQuOCAxMy42IDAgMjguNSAxMS44IDM3LjNsMTUuNi0xNC45Yy04LjYtMy43LTEwLjYtMTQuNS00LTIwLjggNi42LTYuNCAxNy44LTQuNCAyMS43IDMuOEw2OCA1NS4yQzYxLjQgNDYuOSA1MS4xIDQyIDQwLjIgNDIuMXoiIGZpbGw9IiNmOWJjMTUiLz48L3N2Zz4=;" vertex="1" parent="HTIkX7PV5lFFl-K6tS0R-530">
          <mxGeometry x="10" width="90" height="90" as="geometry" />
        </mxCell>
        <mxCell id="HTIkX7PV5lFFl-K6tS0R-524" value="" style="rounded=0;whiteSpace=wrap;html=1;container=1;dashed=1;glass=0;fillOpacity=100;fillColor=none;strokeWidth=2;" vertex="1" parent="HTIkX7PV5lFFl-K6tS0R-530">
          <mxGeometry x="210" y="68.13" width="560" height="463.75" as="geometry" />
        </mxCell>
        <mxCell id="HTIkX7PV5lFFl-K6tS0R-522" value="Docker" style="image;sketch=0;aspect=fixed;html=1;points=[];align=center;fontSize=12;image=img/lib/mscae/Docker.svg;container=1;" vertex="1" parent="HTIkX7PV5lFFl-K6tS0R-524">
          <mxGeometry x="472.5955094991364" y="12.619047619047619" width="67.16541867001084" height="55.072968336661106" as="geometry" />
        </mxCell>
        <mxCell id="HTIkX7PV5lFFl-K6tS0R-526" value="React Generate &#xa;Static Contents" style="shape=image;imageAspect=0;aspect=fixed;verticalLabelPosition=bottom;verticalAlign=top;image=data:image/svg+xml,PHN2ZyB4bWxucz0iaHR0cDovL3d3dy53My5vcmcvMjAwMC9zdmciIHZpZXdCb3g9IjAgMCAxMjggMTI4Ij48ZyBmaWxsPSIjNjFEQUZCIj48Y2lyY2xlIHI9IjExLjQiIGN5PSI2NCIgY3g9IjY0Ii8+PHBhdGggZD0iTTEwNy4zIDQ1LjJjLTIuMi0uOC00LjUtMS42LTYuOS0yLjMuNi0yLjQgMS4xLTQuOCAxLjUtNy4xIDIuMS0xMy4yLS4yLTIyLjUtNi42LTI2LjEtMS45LTEuMS00LTEuNi02LjQtMS42LTcgMC0xNS45IDUuMi0yNC45IDEzLjktOS04LjctMTcuOS0xMy45LTI0LjktMTMuOS0yLjQgMC00LjUuNS02LjQgMS42LTYuNCAzLjctOC43IDEzLTYuNiAyNi4xLjQgMi4zLjkgNC43IDEuNSA3LjEtMi40LjctNC43IDEuNC02LjkgMi4zQzguMiA1MCAxLjQgNTYuNiAxLjQgNjRzNi45IDE0IDE5LjMgMTguOGMyLjIuOCA0LjUgMS42IDYuOSAyLjMtLjYgMi40LTEuMSA0LjgtMS41IDcuMS0yLjEgMTMuMi4yIDIyLjUgNi42IDI2LjEgMS45IDEuMSA0IDEuNiA2LjQgMS42IDcuMSAwIDE2LTUuMiAyNC45LTEzLjkgOSA4LjcgMTcuOSAxMy45IDI0LjkgMTMuOSAyLjQgMCA0LjUtLjUgNi40LTEuNiA2LjQtMy43IDguNy0xMyA2LjYtMjYuMS0uNC0yLjMtLjktNC43LTEuNS03LjEgMi40LS43IDQuNy0xLjQgNi45LTIuMyAxMi41LTQuOCAxOS4zLTExLjQgMTkuMy0xOC44cy02LjgtMTQtMTkuMy0xOC44ek05Mi41IDE0LjdjNC4xIDIuNCA1LjUgOS44IDMuOCAyMC4zLS4zIDIuMS0uOCA0LjMtMS40IDYuNi01LjItMS4yLTEwLjctMi0xNi41LTIuNS0zLjQtNC44LTYuOS05LjEtMTAuNC0xMyA3LjQtNy4zIDE0LjktMTIuMyAyMS0xMi4zIDEuMyAwIDIuNS4zIDMuNS45ek04MS4zIDc0Yy0xLjggMy4yLTMuOSA2LjQtNi4xIDkuNi0zLjcuMy03LjQuNC0xMS4yLjQtMy45IDAtNy42LS4xLTExLjItLjQtMi4yLTMuMi00LjItNi40LTYtOS42LTEuOS0zLjMtMy43LTYuNy01LjMtMTAgMS42LTMuMyAzLjQtNi43IDUuMy0xMCAxLjgtMy4yIDMuOS02LjQgNi4xLTkuNiAzLjctLjMgNy40LS40IDExLjItLjQgMy45IDAgNy42LjEgMTEuMi40IDIuMiAzLjIgNC4yIDYuNCA2IDkuNiAxLjkgMy4zIDMuNyA2LjcgNS4zIDEwLTEuNyAzLjMtMy40IDYuNi01LjMgMTB6bTguMy0zLjNjMS41IDMuNSAyLjcgNi45IDMuOCAxMC4zLTMuNC44LTcgMS40LTEwLjggMS45IDEuMi0xLjkgMi41LTMuOSAzLjYtNiAxLjItMi4xIDIuMy00LjIgMy40LTYuMnpNNjQgOTcuOGMtMi40LTIuNi00LjctNS40LTYuOS04LjMgMi4zLjEgNC42LjIgNi45LjIgMi4zIDAgNC42LS4xIDYuOS0uMi0yLjIgMi45LTQuNSA1LjctNi45IDguM3ptLTE4LjYtMTVjLTMuOC0uNS03LjQtMS4xLTEwLjgtMS45IDEuMS0zLjMgMi4zLTYuOCAzLjgtMTAuMyAxLjEgMiAyLjIgNC4xIDMuNCA2LjEgMS4yIDIuMiAyLjQgNC4xIDMuNiA2LjF6bS03LTI1LjVjLTEuNS0zLjUtMi43LTYuOS0zLjgtMTAuMyAzLjQtLjggNy0xLjQgMTAuOC0xLjktMS4yIDEuOS0yLjUgMy45LTMuNiA2LTEuMiAyLjEtMi4zIDQuMi0zLjQgNi4yek02NCAzMC4yYzIuNCAyLjYgNC43IDUuNCA2LjkgOC4zLTIuMy0uMS00LjYtLjItNi45LS4yLTIuMyAwLTQuNi4xLTYuOS4yIDIuMi0yLjkgNC41LTUuNyA2LjktOC4zem0yMi4yIDIxbC0zLjYtNmMzLjguNSA3LjQgMS4xIDEwLjggMS45LTEuMSAzLjMtMi4zIDYuOC0zLjggMTAuMy0xLjEtMi4xLTIuMi00LjItMy40LTYuMnpNMzEuNyAzNWMtMS43LTEwLjUtLjMtMTcuOSAzLjgtMjAuMyAxLS42IDIuMi0uOSAzLjUtLjkgNiAwIDEzLjUgNC45IDIxIDEyLjMtMy41IDMuOC03IDguMi0xMC40IDEzLTUuOC41LTExLjMgMS40LTE2LjUgMi41LS42LTIuMy0xLTQuNS0xLjQtNi42ek03IDY0YzAtNC43IDUuNy05LjcgMTUuNy0xMy40IDItLjggNC4yLTEuNSA2LjQtMi4xIDEuNiA1IDMuNiAxMC4zIDYgMTUuNi0yLjQgNS4zLTQuNSAxMC41LTYgMTUuNUMxNS4zIDc1LjYgNyA2OS42IDcgNjR6bTI4LjUgNDkuM2MtNC4xLTIuNC01LjUtOS44LTMuOC0yMC4zLjMtMi4xLjgtNC4zIDEuNC02LjYgNS4yIDEuMiAxMC43IDIgMTYuNSAyLjUgMy40IDQuOCA2LjkgOS4xIDEwLjQgMTMtNy40IDcuMy0xNC45IDEyLjMtMjEgMTIuMy0xLjMgMC0yLjUtLjMtMy41LS45ek05Ni4zIDkzYzEuNyAxMC41LjMgMTcuOS0zLjggMjAuMy0xIC42LTIuMi45LTMuNS45LTYgMC0xMy41LTQuOS0yMS0xMi4zIDMuNS0zLjggNy04LjIgMTAuNC0xMyA1LjgtLjUgMTEuMy0xLjQgMTYuNS0yLjUuNiAyLjMgMSA0LjUgMS40IDYuNnptOS0xNS42Yy0yIC44LTQuMiAxLjUtNi40IDIuMS0xLjYtNS0zLjYtMTAuMy02LTE1LjYgMi40LTUuMyA0LjUtMTAuNSA2LTE1LjUgMTMuOCA0IDIyLjEgMTAgMjIuMSAxNS42IDAgNC43LTUuOCA5LjctMTUuNyAxMy40eiIvPjwvZz48L3N2Zz4=;container=1;" vertex="1" parent="HTIkX7PV5lFFl-K6tS0R-524">
          <mxGeometry x="160.28157115006132" y="59.45318681318681" width="51.13918488404245" height="51.13918488404245" as="geometry" />
        </mxCell>
        <mxCell id="HTIkX7PV5lFFl-K6tS0R-527" value="Nginx Serves Client &#xa;Static Contents" style="shape=image;imageAspect=0;aspect=fixed;verticalLabelPosition=bottom;verticalAlign=top;image=data:image/svg+xml,PHN2ZyB4bWxucz0iaHR0cDovL3d3dy53My5vcmcvMjAwMC9zdmciIHZpZXdCb3g9IjAgMCAxMjggMTI4Ij48cGF0aCBmaWxsPSIjMDkwIiBkPSJNMjQuNSA1MC41Yy0xLjUgMC0yLjUgMS4yLTIuNSAyLjd2MTQuMWwtMTUuOS0xNmMtLjgtLjgtMi4yLTEtMy4yLS42UzEgNTIuMSAxIDUzLjJ2MjAuN2MwIDEuNSAxLjUgMi43IDMgMi43czMtMS4yIDMtMi43VjU5LjhsMTYuMSAxNmMuNS41IDEuMi44IDEuOS44LjMgMCAuNC0uMS43LS4yIDEtLjQgMS4zLTEuNCAxLjMtMi41VjUzLjNjMC0xLjUtMS0yLjgtMi41LTIuOHptMTkuNyAxMS44Yy0xLjQgMC0yLjcgMS40LTIuNyAyLjhzMS4zIDIuOCAyLjcgMi44bDYuNi40LTEuNSAzLjdoLTguNWwtNC4yLTcuOSA0LjMtOC4xSDUwbDIuMSA0aDUuNUw1NCA1Mi4xbC0uOC0xLjFIMzcuNmwtLjcgMS4yTDMxIDYyLjVsLS43IDEuMy43IDEuMyA1LjggMTAuMy44IDEuNmgxNS4xbC43LTEuNyA0LjMtOSAxLjktNC4zaC00LjRsLTExIC4zek02NSA1MC41Yy0xLjQgMC0zIDEuMy0zIDIuN1Y2MGg2di02LjdjMC0xLjUtMS42LTIuOC0zLTIuOHptMzAuNC4zYy0xLS40LTIuNC0uMi0zLjEuNkw3NiA2Ny40VjUzLjNjMC0xLjUtMS0yLjctMi41LTIuN1M3MSA1MS44IDcxIDUzLjNWNzRjMCAxLjEuNyAyLjEgMS43IDIuNS4zLjEuNy4yIDEgLjIuNyAwIDEuNi0uMyAyLjEtLjhsMTYuMi0xNlY3NGMwIDEuNSAxIDIuNyAyLjUgMi43Uzk3IDc1LjUgOTcgNzRWNTMuM2MwLTEuMS0uNi0yLjEtMS42LTIuNXptMjEuOCAxMi44bDguNC04LjRjMS4xLTEuMSAxLjEtMi44IDAtMy44LTEuMS0xLjEtMi44LTEuMS0zLjggMGwtOC40IDguNC04LjQtOC40Yy0xLjEtMS4xLTIuOC0xLjEtMy44IDAtMS4xIDEuMS0xLjEgMi44IDAgMy44bDguNCA4LjQtOC40IDguNGMtMS4xIDEuMS0xLjEgMi44IDAgMy44LjUuNSAxLjIuOCAxLjkuOHMxLjQtLjMgMS45LS44bDguNC04LjQgOC40IDguNGMuNS41IDEuMi44IDEuOS44czEuNC0uMyAxLjktLjhjMS4xLTEuMSAxLjEtMi44IDAtMy44bC04LjQtOC40ek02MiA3My45YzAgMS40IDEuNSAyLjcgMyAyLjcgMS40IDAgMy0xLjMgMy0yLjdWNjJoLTZ2MTEuOXoiLz48L3N2Zz4=;container=1;" vertex="1" parent="HTIkX7PV5lFFl-K6tS0R-524">
          <mxGeometry x="249.0508476461482" y="187.8840293040293" width="70.8081021471357" height="70.8081021471357" as="geometry" />
        </mxCell>
        <mxCell id="HTIkX7PV5lFFl-K6tS0R-529" value="Nginx Reverse Proxy" style="shape=image;imageAspect=0;aspect=fixed;verticalLabelPosition=bottom;verticalAlign=top;image=data:image/svg+xml,PHN2ZyB4bWxucz0iaHR0cDovL3d3dy53My5vcmcvMjAwMC9zdmciIHZpZXdCb3g9IjAgMCAxMjggMTI4Ij48cGF0aCBmaWxsPSIjMDkwIiBkPSJNMjQuNSA1MC41Yy0xLjUgMC0yLjUgMS4yLTIuNSAyLjd2MTQuMWwtMTUuOS0xNmMtLjgtLjgtMi4yLTEtMy4yLS42UzEgNTIuMSAxIDUzLjJ2MjAuN2MwIDEuNSAxLjUgMi43IDMgMi43czMtMS4yIDMtMi43VjU5LjhsMTYuMSAxNmMuNS41IDEuMi44IDEuOS44LjMgMCAuNC0uMS43LS4yIDEtLjQgMS4zLTEuNCAxLjMtMi41VjUzLjNjMC0xLjUtMS0yLjgtMi41LTIuOHptMTkuNyAxMS44Yy0xLjQgMC0yLjcgMS40LTIuNyAyLjhzMS4zIDIuOCAyLjcgMi44bDYuNi40LTEuNSAzLjdoLTguNWwtNC4yLTcuOSA0LjMtOC4xSDUwbDIuMSA0aDUuNUw1NCA1Mi4xbC0uOC0xLjFIMzcuNmwtLjcgMS4yTDMxIDYyLjVsLS43IDEuMy43IDEuMyA1LjggMTAuMy44IDEuNmgxNS4xbC43LTEuNyA0LjMtOSAxLjktNC4zaC00LjRsLTExIC4zek02NSA1MC41Yy0xLjQgMC0zIDEuMy0zIDIuN1Y2MGg2di02LjdjMC0xLjUtMS42LTIuOC0zLTIuOHptMzAuNC4zYy0xLS40LTIuNC0uMi0zLjEuNkw3NiA2Ny40VjUzLjNjMC0xLjUtMS0yLjctMi41LTIuN1M3MSA1MS44IDcxIDUzLjNWNzRjMCAxLjEuNyAyLjEgMS43IDIuNS4zLjEuNy4yIDEgLjIuNyAwIDEuNi0uMyAyLjEtLjhsMTYuMi0xNlY3NGMwIDEuNSAxIDIuNyAyLjUgMi43Uzk3IDc1LjUgOTcgNzRWNTMuM2MwLTEuMS0uNi0yLjEtMS42LTIuNXptMjEuOCAxMi44bDguNC04LjRjMS4xLTEuMSAxLjEtMi44IDAtMy44LTEuMS0xLjEtMi44LTEuMS0zLjggMGwtOC40IDguNC04LjQtOC40Yy0xLjEtMS4xLTIuOC0xLjEtMy44IDAtMS4xIDEuMS0xLjEgMi44IDAgMy44bDguNCA4LjQtOC40IDguNGMtMS4xIDEuMS0xLjEgMi44IDAgMy44LjUuNSAxLjIuOCAxLjkuOHMxLjQtLjMgMS45LS44bDguNC04LjQgOC40IDguNGMuNS41IDEuMi44IDEuOS44czEuNC0uMyAxLjktLjhjMS4xLTEuMSAxLjEtMi44IDAtMy44bC04LjQtOC40ek02MiA3My45YzAgMS40IDEuNSAyLjcgMyAyLjcgMS40IDAgMy0xLjMgMy0yLjdWNjJoLTZ2MTEuOXoiLz48L3N2Zz4=;container=1;" vertex="1" parent="HTIkX7PV5lFFl-K6tS0R-524">
          <mxGeometry x="60.11107176953664" y="196.2895283882784" width="70.8081021471357" height="70.8081021471357" as="geometry" />
        </mxCell>
        <mxCell id="HTIkX7PV5lFFl-K6tS0R-525" value="Go Serves API Request &amp;&#xa;Connect with DB" style="shape=image;imageAspect=0;aspect=fixed;verticalLabelPosition=bottom;verticalAlign=top;image=data:image/svg+xml,PHN2ZyB4bWxuczp4bGluaz0iaHR0cDovL3d3dy53My5vcmcvMTk5OS94bGluayIgeG1sbnM9Imh0dHA6Ly93d3cudzMub3JnLzIwMDAvc3ZnIiB2aWV3Qm94PSIwIDAgMTI4IDEyOCI+PGRlZnM+PHBhdGggZD0iTTE4LjggMWg5MC41djEyNkgxOC44eiIgaWQ9ImdvLW9yaWdpbmFsLWEiLz48L2RlZnM+PGNsaXBQYXRoIGlkPSJnby1vcmlnaW5hbC1iIj48dXNlIG92ZXJmbG93PSJ2aXNpYmxlIiB4bGluazpocmVmPSIjZ28tb3JpZ2luYWwtYSIvPjwvY2xpcFBhdGg+PHBhdGggY2xpcC1wYXRoPSJ1cmwoI2dvLW9yaWdpbmFsLWIpIiBkPSJNMjEuMSA2OC43Yy4yIDMuNSAzLjcgMS45IDUuMy44IDEuNS0xLjEgMi0uMiAyLjEtMi4zLjEtMS40LjItMi43LjItNC4xLTIuMy0uMi00LjguMy02LjcgMS43LS45LjctMi44IDMtLjkgMy45IiBmaWxsPSIjRjZEMkEyIiBjbGlwLXJ1bGU9ImV2ZW5vZGQiIGZpbGwtcnVsZT0iZXZlbm9kZCIvPjxwYXRoIGNsaXAtcGF0aD0idXJsKCNnby1vcmlnaW5hbC1iKSIgZD0iTTIzIDcxLjJjLS43IDAtMi0uMy0yLjItMi4zLS42LS40LS44LS45LS44LTEuMi0uMS0xLjIgMS4yLTIuNiAxLjktMy4xIDEuNi0xLjIgMy43LTEuOCA1LjktMS44aDEuM3YuM2MuMSAxLjEgMCAyLjItLjEgMy4yIDAgLjMgMCAuNi0uMS45LS4xIDEuNS0uNCAxLjctMS4xIDItLjMuMS0uNi4yLTEuMS42LS41LjMtMi4yIDEuNC0zLjcgMS40em00LjgtNy44Yy0yLjEgMC00IC42LTUuNSAxLjctLjcuNS0xLjcgMS43LTEuNiAyLjUgMCAuMy4yLjYuNi44bC4yLjF2LjJjLjEgMS42LjkgMS44IDEuNSAxLjggMSAwIDIuNC0uNyAzLjMtMS4zLjYtLjQgMS0uNSAxLjMtLjYuNS0uMi42LS4yLjctMS40IDAtLjMgMC0uNi4xLS45LjEtLjkuMS0xLjkuMS0yLjgtLjMtLjEtLjUtLjEtLjctLjF6Ii8+PHBhdGggY2xpcC1wYXRoPSJ1cmwoI2dvLW9yaWdpbmFsLWIpIiBkPSJNMjEuMSA2OC43Yy41LS4yIDEuMS0uMyAxLjQtLjgiIGZpbGw9IiNDNkIxOTgiIGNsaXAtcnVsZT0iZXZlbm9kZCIgZmlsbC1ydWxlPSJldmVub2RkIi8+PHBhdGggY2xpcC1wYXRoPSJ1cmwoI2dvLW9yaWdpbmFsLWIpIiBkPSJNMjEuMSA2OWMtLjEgMC0uMy0uMS0uMy0uMi0uMS0uMiAwLS40LjItLjQuMSAwIC4yLS4xLjItLjEuNC0uMi44LS4zIDEtLjYuMS0uMS4zLS4yLjUtLjEuMS4xLjIuMy4xLjUtLjQuNS0uOS43LTEuMy44bC0uMi4xaC0uMnoiLz48cGF0aCBjbGlwLXBhdGg9InVybCgjZ28tb3JpZ2luYWwtYikiIGQ9Ik0yOS4zIDI2LjRjLTEzLjYtMy44LTMuNS0yMS4xIDcuNC0xNGwtNy40IDE0eiIgZmlsbD0iIzZBRDdFNSIgY2xpcC1ydWxlPSJldmVub2RkIiBmaWxsLXJ1bGU9ImV2ZW5vZGQiLz48cGF0aCBjbGlwLXBhdGg9InVybCgjZ28tb3JpZ2luYWwtYikiIGQ9Ik0yOS41IDI2LjhsLS4zLS4xYy03LTItNi45LTctNi43LTguNS41LTMuOCA0LjEtNy44IDguOS03LjggMS45IDAgMy43LjYgNS41IDEuOGwuMy4yLTcuNyAxNC40em0xLjktMTUuN2MtNC41IDAtNy44IDMuNy04LjMgNy4yLS41IDMuNiAxLjcgNi40IDYgNy43bDcuMS0xMy41Yy0xLjUtLjktMy4xLTEuNC00LjgtMS40eiIvPjxwYXRoIGNsaXAtcGF0aD0idXJsKCNnby1vcmlnaW5hbC1iKSIgZD0iTTg5LjYgMTEuMWMxMC43LTcuNSAyMC41IDkuNSA4IDEzLjhsLTgtMTMuOHoiIGZpbGw9IiM2QUQ3RTUiIGNsaXAtcnVsZT0iZXZlbm9kZCIgZmlsbC1ydWxlPSJldmVub2RkIi8+PHBhdGggY2xpcC1wYXRoPSJ1cmwoI2dvLW9yaWdpbmFsLWIpIiBkPSJNOTcuNSAyNS4zTDg5LjIgMTFsLjMtLjJjMS45LTEuMyAzLjgtMiA1LjctMiA0LjYgMCA3LjkgMy44IDguNiA3LjUuMyAxLjUuNiA2LjYtNiA4LjhsLS4zLjJ6bS03LjQtMTRsNy43IDEzLjNjMy45LTEuNCA1LjktNC40IDUuMy04LS42LTMuNC0zLjctNi45LTcuOS02LjktMS43LS4xLTMuNC40LTUuMSAxLjZ6Ii8+PHBhdGggY2xpcC1wYXRoPSJ1cmwoI2dvLW9yaWdpbmFsLWIpIiBkPSJNOTIgMTEyLjNjMi43IDEuNyA3LjcgNi44IDMuNiA5LjMtMy45IDMuNi02LjEtNC05LjYtNSAxLjUtMiAzLjQtMy45IDYtNC4zIiBmaWxsPSIjRjZEMkEyIiBjbGlwLXJ1bGU9ImV2ZW5vZGQiIGZpbGwtcnVsZT0iZXZlbm9kZCIvPjxwYXRoIGNsaXAtcGF0aD0idXJsKCNnby1vcmlnaW5hbC1iKSIgZD0iTTkzLjUgMTIyLjljLTEuNiAwLTMtMS42LTQuMi0zLjEtMS4xLTEuMi0yLjItMi41LTMuNC0yLjlsLS41LS4xLjMtLjRjMS4yLTEuNyAzLjItMy45IDYuMi00LjRoLjFsLjEuMWMxLjcgMS4xIDUuNCA0LjIgNS4zIDcuMSAwIDEuMS0uNiAyLTEuNyAyLjctLjcuNy0xLjQgMS0yLjIgMXptLTctNi41YzEuMi41IDIuMiAxLjggMy4yIDIuOSAxLjIgMS41IDIuNCAyLjggMy43IDIuOC42IDAgMS4yLS4zIDEuOC0uOWguMWMuOS0uNiAxLjQtMS4zIDEuNC0yLjIgMC0yLjMtMi45LTUuMi00LjktNi41LTEuOC41LTMuNiAxLjctNS4zIDMuOXptOS4xIDUuNWMtLjEgMC0uMi0uMS0uMy0uMi0uMi0uNC0uNC0uOS0uNS0xLjMtLjMtLjgtLjYtMS42LTEuMi0yLjItLjEtLjEtLjEtLjMgMC0uNS4xLS4xLjMtLjEuNSAwIC43LjcgMS4xIDEuNiAxLjQgMi41bC41IDEuMmMuMS4yIDAgLjQtLjEuNWgtLjN6Ii8+PHBhdGggY2xpcC1wYXRoPSJ1cmwoI2dvLW9yaWdpbmFsLWIpIiBkPSJNNDMuMiAxMTguMWMtMy4yLjUtNSAzLjQtNy43IDQuOS0yLjUgMS41LTMuNS0uNS0zLjctLjktLjQtLjItLjQuMi0xLS40LTIuMy0zLjcgMi40LTYuNCA0LjktOC4yIDMuNS0uOCA1LjcgMi4yIDcuNSA0LjYiIGZpbGw9IiNGNkQyQTIiIGNsaXAtcnVsZT0iZXZlbm9kZCIgZmlsbC1ydWxlPSJldmVub2RkIi8+PHBhdGggY2xpcC1wYXRoPSJ1cmwoI2dvLW9yaWdpbmFsLWIpIiBkPSJNMzMuOCAxMjMuOGMtMS4zIDAtMi0xLjEtMi4yLTEuNWgtLjFjLS4zIDAtLjUtLjEtLjktLjV2LS4xYy0yLjItMy41IDEuNi02LjIgNC4xLThsLjktLjZoLjJjLjQtLjEuNy0uMSAxLjEtLjEgMyAwIDQuOSAyLjYgNi41IDQuN2wuNS43LS42LjFjLTEuOS4zLTMuMyAxLjUtNC43IDIuNy0uOS44LTEuOCAxLjUtMi44IDIuMS0uOC4zLTEuNC41LTIgLjV6bS0yLjItMi4xYy4xIDAgLjIgMCAuNC4xaC4xbC4xLjFjLjIuMy43IDEuMiAxLjcgMS4yLjUgMCAxLS4yIDEuNS0uNSAxLS41IDEuOS0xLjMgMi43LTIgMS4zLTEuMSAyLjctMi4zIDQuNS0yLjgtMS41LTItMy4zLTQuMi01LjgtNC4yLS4zIDAtLjYgMC0uOS4xbC0uOC42Yy0yLjYgMS44LTUuOCA0LjEtMy45IDcuMS4xLjIuMi4zLjQuM3ptLjIuN2MtLjIgMC0uNC0uMi0uMy0uNC4xLTEgLjYtMS43IDEuMS0yLjUuMy0uNC41LS44LjctMS4yLjEtLjIuMy0uMi40LS4yLjIuMS4yLjMuMi40LS4yLjUtLjUuOS0uOCAxLjMtLjUuNy0uOSAxLjMtMSAyLjEgMCAuNC0uMS41LS4zLjV6Ii8+PHBhdGggY2xpcC1wYXRoPSJ1cmwoI2dvLW9yaWdpbmFsLWIpIiBkPSJNMjkuOSAyMS43Yy0xLjgtLjktMy4xLTIuMi0yLTQuMyAxLTEuOSAyLjktMS43IDQuNy0uOGwtMi43IDUuMXptNjQuOS0xLjhjMS44LS45IDMuMS0yLjIgMi00LjMtMS0xLjktMi45LTEuNy00LjctLjhsMi43IDUuMXoiIGNsaXAtcnVsZT0iZXZlbm9kZCIgZmlsbC1ydWxlPSJldmVub2RkIi8+PHBhdGggY2xpcC1wYXRoPSJ1cmwoI2dvLW9yaWdpbmFsLWIpIiBkPSJNMTA3LjEgNjguMmMtLjIgMy41LTMuNyAxLjktNS4zLjgtMS41LTEuMS0yLS4yLTIuMS0yLjMtLjEtMS40LS4yLTIuNy0uMi00LjEgMi4zLS4yIDQuOC4zIDYuNyAxLjcgMSAuOCAyLjggMyAuOSAzLjkiIGZpbGw9IiNGNkQyQTIiIGNsaXAtcnVsZT0iZXZlbm9kZCIgZmlsbC1ydWxlPSJldmVub2RkIi8+PHBhdGggY2xpcC1wYXRoPSJ1cmwoI2dvLW9yaWdpbmFsLWIpIiBkPSJNMTA1LjMgNzAuN2MtMS41IDAtMy4yLTEuMS0zLjctMS40LS41LS4zLS44LS41LTEuMS0uNi0uOC0uMy0xLS41LTEuMS0yIDAtLjMgMC0uNi0uMS0uOS0uMS0xLS4yLTIuMS0uMS0zLjJ2LS4zaDEuM2MyLjIgMCA0LjMuNiA1LjkgMS44LjcuNSAyIDEuOSAxLjkgMy4xIDAgLjQtLjIuOS0uOCAxLjItLjIgMi0xLjUgMi4zLTIuMiAyLjN6TTk5LjggNjNjMCAuOSAwIDEuOS4xIDIuOCAwIC4zIDAgLjYuMS45LjEgMS4yLjIgMS4yLjcgMS40LjMuMS43LjMgMS4zLjYuOS42IDIuMyAxLjMgMy4zIDEuMy42IDAgMS40LS4yIDEuNS0xLjhWNjhsLjItLjFjLjQtLjIuNi0uNC42LS44LjEtLjgtLjktMi0xLjYtMi41LTEuNS0xLjEtMy41LTEuNy01LjUtMS43LS4yLjEtLjQuMS0uNy4xeiIvPjxwYXRoIGNsaXAtcGF0aD0idXJsKCNnby1vcmlnaW5hbC1iKSIgZD0iTTEwNy4xIDY4LjJjLS41LS4yLTEuMS0uMy0xLjQtLjgiIGZpbGw9IiNDNkIxOTgiIGNsaXAtcnVsZT0iZXZlbm9kZCIgZmlsbC1ydWxlPSJldmVub2RkIi8+PHBhdGggY2xpcC1wYXRoPSJ1cmwoI2dvLW9yaWdpbmFsLWIpIiBkPSJNMTA3LjEgNjguNmgtLjFsLS4yLS4xYy0uNS0uMi0xLS4zLTEuMy0uOC0uMS0uMS0uMS0uNC4xLS41LjEtLjEuNC0uMS41LjEuMi4zLjYuNCAxIC42LjEgMCAuMi4xLjIuMS4yLjEuMy4zLjIuNC0uMS4xLS4zLjItLjQuMnoiLz48cGF0aCBjbGlwLXBhdGg9InVybCgjZ28tb3JpZ2luYWwtYikiIGQ9Ik02Mi44IDRjMTMuNiAwIDI2LjMgMS45IDMzIDE1IDYgMTQuNiAzLjggMzAuNCA0LjggNDUuOS44IDEzLjMgMi41IDI4LjYtMy42IDQwLjktNi41IDEyLjktMjIuNyAxNi4yLTM2IDE1LjctMTAuNS0uNC0yMy4xLTMuOC0yOS4xLTEzLjQtNi45LTExLjItMy43LTI3LjktMy4yLTQwLjQuNi0xNC44LTQtMjkuNy45LTQ0LjFDMzQuNSA4LjUgNDguMSA1LjEgNjIuOCA0IiBmaWxsPSIjNkFEN0U1IiBjbGlwLXJ1bGU9ImV2ZW5vZGQiIGZpbGwtcnVsZT0iZXZlbm9kZCIvPjxwYXRoIGNsaXAtcGF0aD0idXJsKCNnby1vcmlnaW5hbC1iKSIgZD0iTTYzLjMgMTIxLjloLTIuNWMtNC4xLS4xLTEwLjMtLjgtMTYuNC0zLjMtNS45LTIuNC0xMC4yLTUuOC0xMy0xMC4zLTUuNi05LjEtNC42LTIxLjYtMy43LTMyLjcuMi0yLjguNC01LjQuNS03LjkuMi01LjItLjItMTAuNi0uNy0xNS43LS44LTkuNC0xLjYtMTkuMSAxLjUtMjguNSAyLjQtNyA2LjctMTIgMTMuMi0xNS4yIDUuMS0yLjUgMTEuNC0zLjkgMjAuNC00LjZDNzYgMy42IDg5LjMgNS41IDk2IDE4LjhjNC40IDEwLjcgNC40IDIyLjIgNC41IDMzLjMgMCA0LjIgMCA4LjUuMyAxMi43LjEgMS4zLjIgMi42LjIgMy45LjggMTIuMiAxLjcgMjYtMy45IDM3LjItMi44IDUuNy03LjcgOS45LTE0LjQgMTIuNi01LjQgMi4yLTEyLjIgMy40LTE5LjQgMy40ek02Mi44IDQuM2MtMTQuMSAxLjEtMjcuOSA0LjItMzMgMTkuNC0zLjEgOS4zLTIuMyAxOC45LTEuNSAyOC4yLjQgNS4yLjkgMTAuNS43IDE1LjgtLjEgMi41LS4zIDUuMS0uNSA3LjktLjkgMTEtMS45IDIzLjQgMy42IDMyLjMgMi4zIDMuNyA5LjcgMTIuNSAyOC44IDEzLjJoMi41YzIyLjEgMCAzMC4zLTkuOCAzMy4zLTE1LjYgNS41LTExIDQuNi0yNC44IDMuOS0zNi45LS4xLTEuMy0uMi0yLjYtLjItMy45LS4yLTQuMi0uMy04LjUtLjMtMTIuNy0uMS0xMS0uMS0yMi41LTQuNC0zMy4xQzkyLjcgMTMgODguMiA5IDgyIDYuN2MtNi40LTIuMS0xMy42LTIuNC0xOS4yLTIuNHoiLz48cGF0aCBjbGlwLXBhdGg9InVybCgjZ28tb3JpZ2luYWwtYikiIGQ9Ik02NS4yIDIyLjJjMi40IDE0LjIgMjUuNiAxMC40IDIyLjMtMy45LTMtMTIuOC0yMy4xLTkuMi0yMi4zIDMuOSIgZmlsbD0iI2ZmZiIgY2xpcC1ydWxlPSJldmVub2RkIiBmaWxsLXJ1bGU9ImV2ZW5vZGQiLz48cGF0aCBjbGlwLXBhdGg9InVybCgjZ28tb3JpZ2luYWwtYikiIGQ9Ik03Ni4yIDMxLjVjLTQuNSAwLTEwLjItMi40LTExLjQtOS4yLS4yLTMuMi44LTYuMSAyLjktOC4zIDIuMy0yLjUgNS44LTMuOSA5LjQtMy45IDQuMiAwIDkuMiAyLjIgMTAuNiA4LjMuOCAzLjQuMiA2LjQtMS43IDguOC0yLjEgMi42LTUuOCA0LjMtOS44IDQuM3ptLTEwLjctOS4zYy41IDIuOCAxLjggNSAzLjkgNi42IDEuOCAxLjQgNC4zIDIuMSA2LjggMi4xIDMuNyAwIDcuMy0xLjYgOS4zLTQuMSAxLjgtMi4yIDIuMy01LjEgMS42LTguMy0xLjMtNS43LTYtNy43LTEwLTcuNy0zLjQgMC02LjcgMS40LTguOSAzLjctMS45IDItMi45IDQuNy0yLjcgNy43eiIvPjxwYXRoIGNsaXAtcGF0aD0idXJsKCNnby1vcmlnaW5hbC1iKSIgZD0iTTM3LjUgMjQuNWMzLjIgMTIuMyAyMi45IDkuMiAyMi4yLTMuMi0uOS0xNC44LTI1LjMtMTItMjIuMiAzLjIiIGZpbGw9IiNmZmYiIGNsaXAtcnVsZT0iZXZlbm9kZCIgZmlsbC1ydWxlPSJldmVub2RkIi8+PHBhdGggY2xpcC1wYXRoPSJ1cmwoI2dvLW9yaWdpbmFsLWIpIiBkPSJNNDggMzIuN2MtNC4zIDAtOS4zLTIuMS0xMC45LTguMS0uNy0zLjUgMC02LjcgMi05LjEgMi4yLTIuNyA1LjgtNC4zIDkuNy00LjMgNS4yIDAgMTAuNyAzLjEgMTEuMSAxMC4xLjIgMi45LS43IDUuNS0yLjcgNy42LTIuMSAyLjMtNS42IDMuOC05LjIgMy44em0uOC0yMC44Yy0zLjcgMC03LjEgMS41LTkuMiA0LTEuOSAyLjMtMi41IDUuMi0xLjggOC41QzM5LjIgMzAgNDQgMzIgNDggMzJjMy40IDAgNi43LTEuMyA4LjgtMy42IDEuOC0xLjkgMi43LTQuNCAyLjUtNy4xLS4yLTQuMy0zLjEtOS40LTEwLjUtOS40eiIvPjxwYXRoIGNsaXAtcGF0aD0idXJsKCNnby1vcmlnaW5hbC1iKSIgZD0iTTY4IDM5LjJjMCAxLjguNCAzLjkuMSA1LjktLjUuOS0xLjQgMS0yLjIgMS4zLTEuMS0uMi0yLS45LTIuNS0xLjktLjMtMi4yLjEtNC40LjItNi42bDQuNCAxLjN6IiBmaWxsPSIjZmZmIiBjbGlwLXJ1bGU9ImV2ZW5vZGQiIGZpbGwtcnVsZT0iZXZlbm9kZCIvPjxwYXRoIGNsaXAtcGF0aD0idXJsKCNnby1vcmlnaW5hbC1iKSIgZD0iTTY1LjkgNDYuOGMtMS4zLS4yLTIuMy0xLTIuOC0yLjEtLjItMS42LS4xLTMuMSAwLTQuNi4xLS43LjEtMS40LjEtMi4xdi0uNGw1LjEgMS42di4yYzAgLjYuMSAxLjIuMSAxLjkuMSAxLjMuMiAyLjcgMCA0di4xYy0uNC44LTEuMSAxLTEuOCAxLjMtLjItLjEtLjQgMC0uNy4xem0tMi4yLTIuNGMuNC45IDEuMiAxLjUgMi4xIDEuNy4yLS4xLjQtLjEuNS0uMi42LS4yIDEuMS0uNCAxLjQtLjkuMi0xLjIuMS0yLjUgMC0zLjggMC0uNi0uMS0xLjItLjEtMS43bC0zLjgtMS4yYzAgLjYtLjEgMS4yLS4xIDEuNy0uMSAxLjYtLjIgMyAwIDQuNHoiLz48cGF0aCBjbGlwLXBhdGg9InVybCgjZ28tb3JpZ2luYWwtYikiIGQ9Ik00Ni4zIDIyLjVjMCAyLTEuNSAzLjYtMy4zIDMuNi0xLjggMC0zLjMtMS42LTMuMy0zLjZzMS41LTMuNiAzLjMtMy42YzEuOCAwIDMuMyAxLjYgMy4zIDMuNiIgY2xpcC1ydWxlPSJldmVub2RkIiBmaWxsLXJ1bGU9ImV2ZW5vZGQiLz48cGF0aCBjbGlwLXBhdGg9InVybCgjZ28tb3JpZ2luYWwtYikiIGQ9Ik00NS4yIDIzLjNjMCAuNS0uNC45LS44LjlzLS44LS40LS44LS45LjQtLjkuOC0uOWMuNSAwIC44LjQuOC45IiBmaWxsPSIjZmZmIiBjbGlwLXJ1bGU9ImV2ZW5vZGQiIGZpbGwtcnVsZT0iZXZlbm9kZCIvPjxwYXRoIGNsaXAtcGF0aD0idXJsKCNnby1vcmlnaW5hbC1iKSIgZD0iTTc0LjIgMjEuNmMwIDItMS41IDMuNi0zLjMgMy42LTEuOCAwLTMuMy0xLjYtMy4zLTMuNnMxLjUtMy42IDMuMy0zLjZjMS44IDAgMy4zIDEuNiAzLjMgMy42IiBjbGlwLXJ1bGU9ImV2ZW5vZGQiIGZpbGwtcnVsZT0iZXZlbm9kZCIvPjxwYXRoIGNsaXAtcGF0aD0idXJsKCNnby1vcmlnaW5hbC1iKSIgZD0iTTczLjIgMjIuNGMwIC41LS4zLjktLjguOS0uNCAwLS44LS40LS44LS45cy4zLS45LjgtLjljLjQgMCAuOC40LjguOU01OC40IDM5Yy0xLjUgMy41LjggMTAuNiA0LjggNS40LS4zLTIuMi4xLTQuNC4yLTYuNmwtNSAxLjJ6IiBmaWxsPSIjZmZmIiBjbGlwLXJ1bGU9ImV2ZW5vZGQiIGZpbGwtcnVsZT0iZXZlbm9kZCIvPjxwYXRoIGNsaXAtcGF0aD0idXJsKCNnby1vcmlnaW5hbC1iKSIgZD0iTTYwLjUgNDYuNmMtLjcgMC0xLjQtLjQtMS45LTEuMi0xLjEtMS42LTEuMy00LjYtLjUtNi41bC4xLS4yIDUuNS0xLjR2LjRsLS4xIDIuMmMtLjEgMS41LS4yIDIuOSAwIDQuNHYuMWwtLjEuMWMtMSAxLjQtMiAyLjEtMyAyLjF6bS0xLjgtNy4zYy0uNiAxLjctLjQgNC40LjUgNS43LjQuNi44LjkgMS4zLjkuNyAwIDEuNS0uNiAyLjMtMS42LS4yLTEuNS0uMS0zIC4xLTQuNGwuMS0xLjctNC4zIDEuMXoiLz48cGF0aCBjbGlwLXBhdGg9InVybCgjZ28tb3JpZ2luYWwtYikiIGQ9Ik01OC45IDMyLjJjLTIuNy4yLTQuOSAzLjUtMy41IDYgMS45IDMuNCA2LS4zIDguNiAwIDMgLjEgNS40IDMuMiA3LjguNiAyLjctMi45LTEuMi01LjctNC4xLTdsLTguOC40eiIgZmlsbD0iI0Y2RDJBMiIgY2xpcC1ydWxlPSJldmVub2RkIiBmaWxsLXJ1bGU9ImV2ZW5vZGQiLz48cGF0aCBjbGlwLXBhdGg9InVybCgjZ28tb3JpZ2luYWwtYikiIGQ9Ik02OS43IDQwLjJjLS45IDAtMS44LS40LTIuNy0uOC0uOS0uNC0xLjktLjgtMy0uOGgtLjNjLS44IDAtMS43LjMtMi43LjctMS4xLjQtMi4yLjctMy4yLjctMS4yIDAtMi4xLS41LTIuNy0xLjYtLjctMS4yLS42LTIuNi4xLTMuOS44LTEuNSAyLjItMi40IDMuNy0yLjZsOC45LS40aC4xYzIuMi45IDQuNyAyLjYgNS4yIDQuNi4yIDEtLjEgMi0uOSAyLjktLjguOS0xLjYgMS4yLTIuNSAxLjJ6TTY0LjEgMzhjMS4xIDAgMi4yLjUgMy4yLjkuOS40IDEuNy43IDIuNS43LjcgMCAxLjMtLjMgMS45LS45LjctLjcuOS0xLjUuOC0yLjMtLjQtMS43LTIuOC0zLjMtNC43LTQuMWwtOC43LjRjLTEuMy4xLTIuNSAxLTMuMiAyLjItLjYgMS4xLS42IDIuMy0uMSAzLjMuNS45IDEuMSAxLjMgMi4xIDEuMy45IDAgMS45LS40IDIuOS0uNyAxLjEtLjQgMi0uNyAzLS43IDAtLjIuMS0uMi4zLS4xeiIgZmlsbD0iIzIzMUYyMCIvPjxwYXRoIGNsaXAtcGF0aD0idXJsKCNnby1vcmlnaW5hbC1iKSIgZD0iTTU4LjYgMzIuMWMtLjItNC43IDguOC01LjMgOS44LTEuNCAxLjEgNC05LjQgNC45LTkuOCAxLjQiIGNsaXAtcnVsZT0iZXZlbm9kZCIgZmlsbC1ydWxlPSJldmVub2RkIi8+PC9zdmc+;container=1;" vertex="1" parent="HTIkX7PV5lFFl-K6tS0R-524">
          <mxGeometry x="450.8072755135774" y="202.36904304029304" width="59.00675178927975" height="59.00675178927975" as="geometry" />
        </mxCell>
        <mxCell id="HTIkX7PV5lFFl-K6tS0R-539" value="" style="edgeStyle=none;orthogonalLoop=1;jettySize=auto;html=1;rounded=0;startArrow=classic;startFill=1;" edge="1" parent="HTIkX7PV5lFFl-K6tS0R-524">
          <mxGeometry width="80" relative="1" as="geometry">
            <mxPoint x="140.2504472271914" y="237.82051282051282" as="sourcePoint" />
            <mxPoint x="240.4293381037567" y="237.82051282051282" as="targetPoint" />
            <Array as="points" />
          </mxGeometry>
        </mxCell>
        <mxCell id="HTIkX7PV5lFFl-K6tS0R-541" value="" style="html=1;labelBackgroundColor=#ffffff;startArrow=classic;startFill=1;startSize=6;endArrow=classic;endFill=1;endSize=6;jettySize=auto;orthogonalLoop=1;strokeWidth=1;fontSize=14;rounded=0;exitX=0.515;exitY=0;exitDx=0;exitDy=0;exitPerimeter=0;" edge="1" parent="HTIkX7PV5lFFl-K6tS0R-524" source="HTIkX7PV5lFFl-K6tS0R-527">
          <mxGeometry width="60" height="60" relative="1" as="geometry">
            <mxPoint x="130.23255813953486" y="225.92948717948718" as="sourcePoint" />
            <mxPoint x="230.41144901610016" y="95.12820512820512" as="targetPoint" />
            <Array as="points">
              <mxPoint x="290" y="94.87" />
            </Array>
          </mxGeometry>
        </mxCell>
        <mxCell id="HTIkX7PV5lFFl-K6tS0R-542" value="" style="html=1;labelBackgroundColor=#ffffff;startArrow=classic;startFill=1;startSize=6;endArrow=classic;endFill=1;endSize=6;jettySize=auto;orthogonalLoop=1;strokeWidth=1;fontSize=14;rounded=0;exitX=0.017;exitY=0.584;exitDx=0;exitDy=0;exitPerimeter=0;" edge="1" parent="HTIkX7PV5lFFl-K6tS0R-524" source="HTIkX7PV5lFFl-K6tS0R-525">
          <mxGeometry width="60" height="60" relative="1" as="geometry">
            <mxPoint x="450.8050089445438" y="249.71153846153845" as="sourcePoint" />
            <mxPoint x="330.59033989266544" y="237.82051282051282" as="targetPoint" />
          </mxGeometry>
        </mxCell>
        <mxCell id="HTIkX7PV5lFFl-K6tS0R-532" value="Cloud Run" style="html=1;verticalAlign=top;labelPosition=center;verticalLabelPosition=bottom;align=center;spacingTop=-6;fontSize=11;fontStyle=1;fontColor=#999999;shape=image;aspect=fixed;imageAspect=0;image=data:image/svg+xml,PHN2ZyB4bWxucz0iaHR0cDovL3d3dy53My5vcmcvMjAwMC9zdmciIHhtbG5zOnY9Imh0dHBzOi8vdmVjdGEuaW8vbmFubyIgd2lkdGg9IjM2NS40NjQ5OTY3NzA0MjQ5MyIgaGVpZ2h0PSIzNzkuMjIyOTk0NDYzNTc3OTUiIHZpZXdCb3g9IjAgMCA5Ni42OTU5OTkxNDU1MDc4MSAxMDAuMzM1OTk4NTM1MTU2MjUiPiYjeGE7PHN0eWxlIHR5cGU9InRleHQvY3NzIj4mI3hhOwkuc3Qwe2ZpbGw6IzQyODVmNDt9JiN4YTsJLnN0MXtmaWxsOiNhZWNiZmE7fSYjeGE7PC9zdHlsZT4mI3hhOwk8cGF0aCBjbGFzcz0ic3QwIiBkPSJNMjkuNzk0IDEwMC4zMzZMNDYuOTIgNTAuMTY4aDQ5Ljc3NnpNMCA5OS42NzFsMTIuOTc2LTQ5LjUwMkgyOS4yMkwxNi44OTcgOTIuMDU0eiIvPiYjeGE7CTxwYXRoIGNsYXNzPSJzdDEiIGQ9Ik0yOS43OTQgMEw0Ni45MiA1MC4xNjhoNDkuNzc2ek0wIC42NjZsMTIuOTc2IDQ5LjUwMkgyOS4yMkwxNi44OTcgOC4yODN6Ii8+JiN4YTs8L3N2Zz4=;" vertex="1" parent="HTIkX7PV5lFFl-K6tS0R-530">
          <mxGeometry x="90" y="255.41" width="66.78" height="82.5" as="geometry" />
        </mxCell>
        <mxCell id="HTIkX7PV5lFFl-K6tS0R-535" value="Artifact&#xa;Registry" style="sketch=0;html=1;verticalAlign=top;labelPosition=center;verticalLabelPosition=bottom;align=center;spacingTop=-6;fontSize=11;fontStyle=1;fontColor=#999999;shape=image;aspect=fixed;imageAspect=0;image=data:image/svg+xml,PHN2ZyB4bWxucz0iaHR0cDovL3d3dy53My5vcmcvMjAwMC9zdmciIGlkPSJzdmc4MjciIHZlcnNpb249IjEuMSIgdmlld0JveD0iMCAwIDIwNS41MTIyOCAxODAuNTE4MjUiIGhlaWdodD0iMTgwLjUxODI1bW0iIHdpZHRoPSIyMDUuNTEyMjhtbSI+JiN4YTsgICYjeGE7ICA8ZGVmcyBpZD0iZGVmczgyNCIvPiYjeGE7ICA8ZyB0cmFuc2Zvcm09InRyYW5zbGF0ZSgtNC42MDIwNzI4LC01Ni43NjcxMjYpIiBpZD0ibGF5ZXIxIj4mI3hhOyAgICA8cGF0aCBkPSJtIDE0Mi4zMDMzMiwyMDIuNTM2NzUgMjYuNjMwNzgsLTE0Ljc0MDkzIHYgLTI5LjExOTQ4IGwgLTI2LjYzMDc4LDE0Ljg2ODYzIHogbSAtNC44MzQ4OSwwIC0yNi42MzA3OCwtMTQuNzQwOTMgdiAtMjkuMTE5NDggbCAyNi42MzA3OCwxNC44Njg2MyB6IG0gLTI3LjM3NTc4LC01My4zNDI2NCAyNi42MzA3NywtMTQuNzQwOTMgViAxMDUuMzMzNyBsIC0yNi42MzA3NywxNC44Njg2MyB6IG0gLTQuODM0OSwwIC0yNi42MzA3NzcsLTE0Ljc0MDkzIFYgMTA1LjMzMzcgbCAyNi42MzA3NzcsMTQuODY4NjMgeiBtIC0yNy4zNzU3ODgsNTMuMzQyNjQgMjYuNjMwNzc4LC0xNC43NDA5MyB2IC0yOS4xMTk0OCBsIC0yNi42MzA3NzgsMTQuODY4NjMgeiBtIC00LjgzNDg5MywwIC0yNi42MzA3NzksLTE0Ljc0MDkzIHYgLTI5LjExOTQ4IGwgMjYuNjMwNzc5LDE0Ljg2ODYzIHogTSAyMTAuMTE0MzYsMTg1LjQ1NzQzIFYgMTA4LjU1NzM1IEwgMTg5LjY4MTczLDk2LjcxMDk4MSBWIDE5Ny4zMjgwMiBaIG0gLTIwNS41MTIyODcyLDAgViAxMDguNTU3MzUgTCAyNS4wMzQ2OTYsOTYuNzEwOTgxIFYgMTk3LjMyODAyIFoiIHN0eWxlPSJvcGFjaXR5OjE7ZmlsbDojMzM2N2Q2O2ZpbGwtb3BhY2l0eToxO3N0cm9rZTpub25lO3N0cm9rZS13aWR0aDowLjI2NDU4M3B4O3N0cm9rZS1saW5lY2FwOmJ1dHQ7c3Ryb2tlLWxpbmVqb2luOm1pdGVyO3N0cm9rZS1vcGFjaXR5OjEiIGlkPSJwYXRoOTY3LTAtNiIvPiYjeGE7ICAgIDxwYXRoIGQ9Im0gMTM5Ljc5MjI1LDE2OC4yODM3OSAtMjYuMDI5NjQsLTE0LjUxMjkzIDI2LjAyOTY0LC0xNC40MTkzIDI2LjIxNjg5LDE0LjQxOTMgeiBNIDEwNy41ODE1NywxMTQuOTQxMTUgODEuNTUxOTM0LDEwMC40MjgyMiAxMDcuNTgxNTcsODYuMDA4OTE4IDEzMy43OTg0NiwxMDAuNDI4MjIgWiBtIC0zMi4yMTA2ODUsNTMuMzQyNjQgLTI2LjAyOTYzNCwtMTQuNTEyOTMgMjYuMDI5NjM0LC0xNC40MTkzIDI2LjIxNjg5NSwxNC40MTkzIHogbSA4Ni43OTQ3MDUsNjkuMDAxNTkgNDcuOTQ4NzcsLTI3Ljc4NzQ2IHYgLTI0LjA0MDQ5IGwgLTQ3Ljk0ODc3LDI3Ljg1ODIyIHogTSAyMTAuMTE0MzYsODQuNTUyNTU3IDE2Mi4xNjU1OSw1Ni43NjcxMjYgdiAyMy45NjU5MjEgbCA0Ny45NDg3NywyNy44MjQzMDMgeiBNIDUyLjU1MDgzNSwyMzcuMjg1MzggNC42MDIwNzI4LDIwOS40OTc5MiBWIDE4NS40NTc0MyBMIDUyLjU1MDgzNSwyMTMuMzE1NjUgWiBNIDQuNjAyMDcyOCw4NC41NTI1NTcgNTIuNTUwODM1LDU2Ljc2NzEyNiBWIDgwLjczMzA0NyBMIDQuNjAyMDcyOCwxMDguNTU3MzUgWiIgc3R5bGU9Im9wYWNpdHk6MTtmaWxsOiM1Yzg1ZGU7ZmlsbC1vcGFjaXR5OjE7c3Ryb2tlOm5vbmU7c3Ryb2tlLXdpZHRoOjAuMjY0NTgzcHg7c3Ryb2tlLWxpbmVjYXA6YnV0dDtzdHJva2UtbGluZWpvaW46bWl0ZXI7c3Ryb2tlLW9wYWNpdHk6MSIgaWQ9InBhdGg5NjktOCIvPiYjeGE7ICA8L2c+JiN4YTs8L3N2Zz4=;" vertex="1" parent="HTIkX7PV5lFFl-K6tS0R-530">
          <mxGeometry x="470" y="490" width="76.05" height="67" as="geometry" />
        </mxCell>
        <mxCell id="HTIkX7PV5lFFl-K6tS0R-549" value="" style="html=1;labelBackgroundColor=#ffffff;startArrow=classic;startFill=1;startSize=6;endArrow=classic;endFill=1;endSize=6;jettySize=auto;orthogonalLoop=1;strokeWidth=1;fontSize=14;rounded=0;exitX=1.011;exitY=0.576;exitDx=0;exitDy=0;exitPerimeter=0;" edge="1" parent="HTIkX7PV5lFFl-K6tS0R-530" source="HTIkX7PV5lFFl-K6tS0R-532">
          <mxGeometry width="60" height="60" relative="1" as="geometry">
            <mxPoint x="350" y="380" as="sourcePoint" />
            <mxPoint x="260" y="301" as="targetPoint" />
          </mxGeometry>
        </mxCell>
        <mxCell id="495" value="Clients" style="strokeColor=#dddddd;fillColor=#ffffff;shadow=1;strokeWidth=1;rounded=1;absoluteArcSize=1;arcSize=2;labelPosition=center;verticalLabelPosition=middle;align=center;verticalAlign=bottom;spacingLeft=0;fontColor=#999999;fontSize=12;whiteSpace=wrap;spacingBottom=2;html=1;" parent="1" vertex="1">
          <mxGeometry x="60" y="287.5" width="70" height="85" as="geometry" />
        </mxCell>
        <mxCell id="496" value="" style="dashed=0;connectable=0;html=1;fillColor=#757575;strokeColor=none;shape=mxgraph.gcp2.laptop;part=1;" parent="495" vertex="1">
          <mxGeometry x="0.5" width="50" height="33" relative="1" as="geometry">
            <mxPoint x="-25" y="18.5" as="offset" />
          </mxGeometry>
        </mxCell>
        <mxCell id="HTIkX7PV5lFFl-K6tS0R-528" value="" style="shape=image;imageAspect=0;aspect=fixed;verticalLabelPosition=bottom;verticalAlign=top;image=data:image/svg+xml,PHN2ZyB4bWxucz0iaHR0cDovL3d3dy53My5vcmcvMjAwMC9zdmciIHZpZXdCb3g9IjAgMCAxMjggMTI4Ij48cGF0aCBkPSJNODcuMjU5IDEwMC4xMzljLjE2OS0uMzI1LjMzMS0uNjEyLjQ2OS0uOTA5LjA4Ny0uMTkuMjIxLS4yMjguNDEtLjIyMyAxLjEzMy4wMzIgMi4yNjYuMDY3IDMuNC4wNzguOTYzLjAxIDEuOTI4LS4wMDggMi44OTItLjAxOSAxLjA4Ni0uMDEzIDIuMTcyLS4wNyAzLjI1Ny0uMDM5IDEuNDQ1LjA0MiAyLjg1My4zMjUgNC4xNi45NjggMS41NjEuNzY5IDIuNzQyIDEuOTQgMy41NDcgMy40ODNhOC43MSA4LjcxIDAgMDEuOTMxIDMuMTRjLjE3MiAxLjYwOC4wNTkgMy4xNzktLjQ1MSA0LjcxNy0uNjMyIDEuOTA2LTEuODMyIDMuMzY1LTMuNDk5IDQuNDU4LTEuMjgzLjg0MS0yLjY5IDEuMzM4LTQuMTk4IDEuNjIyLTEuNTk2LjMwMS0zLjE5Ny4yMDQtNC43OTguMjA5LTEuNzU2LjAwNy0zLjUxMS0uMDMxLTUuMjY3LS4wNTEtLjMwNy0uMDAzLS4zNTEtLjA2MS0uMjctLjM1NGwuMDc1LS4yN2MuMTcxLS41MzguMjYzLS41NjIuODA5LS42NTJhMi44MyAyLjgzIDAgMDAxLjA4Ny0uNDEzYy4xODQtLjEyMi4yNi0uNDQuMzMyLS42ODUuMDYyLS4yMTQuMDY1LS40NDkuMDY3LS42NzUuMDI1LTMuNDI1LjA1MS02Ljg0OS4wNjUtMTAuMjcyYTQ0LjA3NyA0NC4wNzcgMCAwMC0uMDY1LTIuNTk2Yy0uMDM0LS42MDUtLjM1Ny0xLjAxOS0xLjA3Ny0xLjE2Mi0uNTYtLjExMS0xLjEyNC0uMTk3LTEuNjg3LS4yOTZsLS4xODktLjA1OXptMTYuMDc2IDguMjkzYy0uMDc2LS42ODItLjExMy0xLjM3LS4yMzUtMi4wNDItLjI5Mi0xLjYxMy0uOTk4LTMuMDE4LTIuMjM4LTQuMTE5LTIuMDA1LTEuNzc5LTQuNDE5LTIuMDUzLTYuOTQ5LTEuODQxLS41NzYuMDQ4LS43LjI0NS0uNzA5LjgzNy0uMDE0Ljg0LS4wMjggMS42OC0uMDI5IDIuNTItLjAwNCAyLjY2NC0uMDA0IDUuMzI4IDAgNy45OTIuMDAxLjc1OC4wMDkgMS41MTYuMDMxIDIuMjcyLjAyNC43NzQuMzA1IDEuNDI5IDEuMDYzIDEuNzI5IDEuMTk1LjQ3MyAyLjQ1Mi41MjkgMy43MDYuMzM2IDIuMDAzLS4zMDcgMy40MDQtMS40NzQgNC4zNDQtMy4yMjMuNzQ0LTEuMzg4Ljk1NC0yLjkwMyAxLjAxNi00LjQ2MXptNC44NjkgOS4wNzFjLS4wMjQtLjQxNS4xNDYtLjc1OC4zNTYtMS4wNzMuMDU3LS4wODUuMjUzLS4wODEuMzg4LS4xMDhsMS4xNDYtLjIyN2MuNDA1LS4wODYuNjE4LS4zNTguNjc1LS43NTUuMDM4LS4yNjIuMDc0LS41MjcuMDc3LS43OTJhODc5LjYgODc5LjYgMCAwMC4wNTktNi4yOTFjLjAxLTIuMS4wMDItNC4yLjAwMi02LjNsLS4wMDktLjQwMWMtLjA0MS0uNjc1LS4zNjctMS4wMjUtMS4wMzctMS4xMjRsLTEuNDUzLS4yMjFjLS4xNzktLjAyNC0uMjQ0LS4xMS0uMTc5LS4yNjkuMTEyLS4yNzEuMjE5LS41NTIuMzc3LS43OTYuMDU5LS4wOS4yNTgtLjEyNS4zOTItLjEyMi42OTQuMDEgMS4zODguMDYyIDIuMDgyLjA2MWw2LjA0MS0uMDM2YzEuMTY0LS4wMDEgMi4yODguMjAyIDMuMzMyLjc1OSAxLjE0OS42MTIgMS43OTIgMS41NTkgMS45NzYgMi44NDkuMTkyIDEuMzU1LS4yMTkgMi40OTctMS4yMDkgMy40MDQtLjQwNy4zNzQtLjkzNC42MTgtMS40MDYuOTIybC0uMTU0LjA5NmMuNDM4LjE2MS44NTUuMyAxLjI2MS40NjYgMS4xODguNDg3IDIuMTMzIDEuMjQ4IDIuNjMzIDIuNDYzLjM5NS45NTkuMzk1IDEuOTU5LjE2MSAyLjk1My0uMzY0IDEuNTU2LTEuMzg5IDIuNTkxLTIuNzIyIDMuMzc0LTEuMjUxLjczNS0yLjYwNSAxLjE2My00LjA0NyAxLjIzNS0xLjMzLjA2Ny0yLjY2Ni4wNDItMy45OTkuMDU3bC0uNzcyLjAwNGE5OTYuMTA2IDk5Ni4xMDYgMCAwMS0zLjg1NC0uMDk2bC0uMTE3LS4wMzJ6bTUuNTM3LTYuMDg5aC4wMTNjMCAuNjU4LS4wMDkgMS4zMTYuMDAzIDEuOTc0LjAwOC40MjYtLjAwNy44NjQuMDg1IDEuMjc0LjEzOC42MTMuNDE4IDEuMTY2IDEuMTA2IDEuMzQyYTYuNjcxIDYuNjcxIDAgMDAyLjgxOC4xMjRjMS4xNzctLjIwNSAyLjExNi0uNzk1IDIuNjMxLTEuOTE2LjM4Mi0uODMzLjQzOS0xLjcxNi4zMDgtMi42MTgtLjE3NC0xLjE4OC0uODA1LTIuMDUtMS44NTQtMi42MTUtLjY4OC0uMzcxLTEuNDIyLS41OTgtMi4yMDQtLjYyOC0uODc2LS4wMzMtMS43NTMtLjAzNS0yLjYyOS0uMDYyLS4yNDYtLjAwNy0uMjguMTE4LS4yNzkuMzIuMDA1LjkzNC4wMDIgMS44NjkuMDAyIDIuODA1em0xLjg2NS00LjQ3NWMuNDc5LS4wMjQgMS4wMjEtLjAzMSAxLjU2LS4wODUgMS4wMzItLjEwMyAxLjc1OS0uNjIyIDIuMTM4LTEuNjA5LjE5My0uNTAxLjE4NS0xLjAxNy4xOS0xLjUzOC4wMTUtMS4zNTctLjc3Ny0yLjQ2OS0yLjA2Ni0yLjkyOS0uOTk1LS4zNTUtMi4wMjEtLjM2MS0zLjA1My0uMzMzLS40MTguMDExLS42MDUuMTk0LS42MTEuNjE1bC0uMDYyIDUuNDg5Yy0uMDAzLjIxOC4wOTEuMzEyLjMwMy4zMTlsMS42MDEuMDcxeiIgZmlsbD0iIzk0Nzk1RCIgY2xpcC1ydWxlPSJldmVub2RkIiBmaWxsLXJ1bGU9ImV2ZW5vZGQiLz48cGF0aCBkPSJNMTAuNTQzIDExNi40NDhsLS4wNzMuOTQ0Yy0uNjggMC0xLjMwNy0uMDA1LTEuOTM0LjAwMi0xLjE4MS4wMTItMi4zNjIuMDMxLTMuNTQ0LjA0OGwtLjExNC4wMDdjLS4xNjktLjAyLS40NzYtLjAyLS40ODQtLjA3LS4wNS0uMjgxLS4wMzQtLjU3Ni0uMDIxLS44NjcuMDAxLS4wMzMuMTE2LS4wNzUuMTgzLS4wOTFsLjkxOS0uMjA1Yy41NzMtLjE0OS43NzUtLjM5Ni44MDItLjk4OC4wMzEtLjY2Ny4wNjItMS4zMzUuMDY1LTIuMDAyLjAwOS0xLjY0Mi0uMDAxLTMuMjgyLjAwNi00LjkyNC4wMDEtLjM4NC0uMTMyLS42Ny0uNDktLjgyNmE0My43ODcgNDMuNzg3IDAgMDAtMS4yODUtLjU0NmMtLjIwNC0uMDgyLS40NjktLjEyNy0uNDQ1LS40MDEuMDI0LS4yNzkuMjgxLS4zNTIuNTIzLS40MDcgMS4wMDItLjIyOSAyLjAwNS0uNDUyIDMuMDA0LS42OTYuMzIyLS4wNzkuNjMtLjIxMiAxLjAxNS0uMzQ2LjAyLjIwOC4wNTcuNDA2LjA1My42MDRsLS4wNTkuOTQxYy0uMDAxLjEwNi4wNTQuMjQ4LjEzMy4zMDcuMDQ4LjAzNy4yMDktLjAzLjI4OS0uMDkyLjg1NC0uNjUgMS43NTgtMS4yMTEgMi43ODktMS41MzggMS41OTctLjUwNyAyLjk2OC0uMDM3IDMuOTI4IDEuMzQuMzM4LjQ4NS4zMzkuNDg1LjgwOC4xNDYuODA1LS41ODUgMS42NDctMS4xMDEgMi41ODktMS40NDEgMi4wNjgtLjc0NyA0LjA1NS4yMDEgNC43NzQgMi4yODQuMjYyLjc1Ni4zNjIgMS41MzcuMzYgMi4zMzVsLS4wMTkgNS4yOThjLS4wMDEuNDM3LjE0NC42ODYuNTYuODIyLjQ2Ny4xNTMuOTUxLjI1OCAxLjQ3Ny4zOTZsLS4xMjIuOTExYy0uNTk4IDAtMS4xNDgtLjAwNC0xLjY5OC4wMDEtMS4zNDQuMDEyLTIuNjg4LjAxOS00LjAzMS4wNS0uMjM0LjAwNi0uMjk1LS4wNTItLjMwNy0uMjcxLS4wMzktLjcwMS0uMDQ1LS43LjYxNS0uODU4bC4yMjItLjA1N2MuNjQ1LS4xNzYuODYtLjM3NC44NjUtMS4wMjguMDE1LTEuODc4LjA1NC0zLjc2MS0uMDQxLTUuNjM1LS4wOTktMS45NDQtMS42NDItMi45NzktMy41MjYtMi40ODFhNS4xOTQgNS4xOTQgMCAwMC0xLjY5LjgxNGMtLjE3NS4xMjUtLjIwOC4yNjktLjE5NC40ODguMDUzLjgyOC4wODYgMS42NTcuMDkzIDIuNDg2LjAxMiAxLjQ1MS0uMDA2IDIuOTAyIDAgNC4zNTQuMDAyLjU4OC4yMDMuODEzLjc4NC45NDlsLjg2My4xOTkuMTYuMDM2Yy4wMTIuMjc2LjAyMy41NTIuMDEuODI4LS4wMDguMTczLS4xNDIuMTg4LS4yOTIuMTg1LS44MzktLjAyMS0xLjY3OS0uMDQ5LTIuNTE4LS4wNDctMS4wMjEuMDAyLTIuMDQxLjAzMS0zLjA2MS4wNDloLS4yNGMwLS4yOTMtLjAxNC0uNTczLjAxLS44NTIuMDA1LS4wNjcuMTIzLS4xNjEuMjA0LS4xODJsMS4wMDYtLjIxM2MuNDI3LS4xMDUuNjMxLS4zMjQuNjU1LS43NTguMTE0LTIuMDEuMTk2LTQuMDIxLjAwNy02LjAzYTMuNjk1IDMuNjk1IDAgMDAtLjMyNi0xLjE0NWMtLjUxNS0xLjEzOC0xLjY3NC0xLjYxMy0zLjAxMS0xLjI3MS0uNjM1LjE2Mi0xLjIwOC40NTMtMS43NS44MmEuNzk1Ljc5NSAwIDAwLS4zNzguNjk1YzAgMi4wMDUuMDA3IDQuMDEuMDEzIDYuMDE0bC4wMTEuNzczYy4wMTIuNTM5LjI0MS44MjMuNzc2LjkzOS4zNDQuMDc4LjY5Mi4xMzEgMS4wODIuMjAzeiIgZmlsbD0iIzUwMzgyQiIgY2xpcC1ydWxlPSJldmVub2RkIiBmaWxsLXJ1bGU9ImV2ZW5vZGQiLz48cGF0aCBkPSJNNzEuMDAxIDEwNS4yODVjLjE1NS43NTQuMTUyIDEuNDMyLS40MDIgMS45NDYtLjU1LjUxMS0xLjI0Ni4zMzktMS45MjUuMjI1LjA2My4zNTguMTMzLjY2Mi4xNjcuOTcuMjQ3IDIuMjg5LS43MzggMy45ODgtMi44NjEgNC45NTktLjgwMi4zNjYtMS42NTMuNTAyLTIuNTIyLjU3Mi0uNDMyLjAzNC0uODEuMzY0LS44NTEuNzE5LS4wNDIuMzYuMTg0LjczLjYzNi44MzguNTMzLjEyNyAxLjA4OS4xNjMgMS42MzYuMjI2IDEuMTc0LjEzNCAyLjM2MS4xOTUgMy41MjEuNDA1IDEuNzU0LjMxNiAyLjczMyAxLjg0NyAyLjQyNCAzLjYwOS0uMjc1IDEuNTY4LTEuMTgzIDIuNzA5LTIuNDQ5IDMuNTg0LTIuMTMzIDEuNDc4LTQuNDczIDEuOTEtNi45NjUgMS4xNTYtMS40MjUtLjQzMi0yLjQzLTEuMzY5LTIuNzc3LTIuODg1LS4xNzQtLjc1OS4wMTEtMS40NDYuNTgyLTEuOTYxLjY3OS0uNjEgMS40MTgtMS4xNTQgMi4xMjktMS43M2wuMjMtLjIzMS0uMjY0LS4xODVjLS43MjUtLjM0NC0xLjMwNS0uODE1LTEuNTMtMS42MzMtLjA3Ny0uMjc3LjAwMy0uNDU5LjIzOC0uNjAxLjQtLjI0MS43OTgtLjQ4NiAxLjE5My0uNzM1LjE4Ni0uMTE2LjM3LS4yMzYuNTQzLS4zNy4yMzYtLjE4LjIxNS0uMzE0LS4wNjctLjQxOC0uNjU2LS4yNDItMS4yMzktLjU5My0xLjY5MS0xLjEzMy0uNzU1LS45MDEtLjk2OS0xLjk3NC0uOTA3LTMuMTA3LjA5Ny0xLjc3IDEuMDU4LTIuOTM2IDIuNjItMy42ODYgMS44NTctLjg5MSAzLjcyLS45NDcgNS42MTMtLjEzNS43LjMgMS40MzguMzY0IDIuMTg5LjMxMi41NjEtLjA0IDEuMDUxLS4yNTIgMS40OS0uNzExem0tNi44NDMgMTIuNjgxYy0xLjM5NC0uMDEyLTEuODMxLjE2LTIuNjQ5Ljk5My0uOTE2LjkzNC0uOTExIDIuMjI5LjAwMyAzLjE2Ny42OTQuNzExIDEuNTYgMS4wNDQgMi41MjMgMS4xNDQgMS4xMjUuMTE2IDIuMjMzLjA2OSAzLjI1NS0uNDk0IDEuMDktLjYwMyAxLjYzMi0xLjcyMyAxLjM4Ny0yLjg1MS0uMjAzLS45MzEtLjg4OS0xLjM1Ny0xLjcyNC0xLjYwMi0uOTUtLjI3OC0xLjkzMi0uMzMxLTIuNzk1LS4zNTd6bS0yLjczOC04LjkwOGMuMDUxLjM4Ny4wNzIuNzc5LjE1OCAxLjE1OC4yMjMuOTgyLjY1IDEuODQ1IDEuNjI3IDIuMjgyIDEuMTQ3LjUxNSAyLjYxMi4yOTQgMy4xMTQtMS4zMTZhNC44NTMgNC44NTMgMCAwMC0uMTEzLTMuMjc0IDIuNTEyIDIuNTEyIDAgMDAtLjkxLTEuMTg0Yy0uOTk2LS42OTUtMi43OTMtLjc4Ny0zLjUyNS43NDktLjIzOC40OTktLjMzMSAxLjAzLS4zNTEgMS41ODV6IiBmaWxsPSIjNEYzODJCIiBjbGlwLXJ1bGU9ImV2ZW5vZGQiIGZpbGwtcnVsZT0iZXZlbm9kZCIvPjxwYXRoIGQ9Ik00Ny4zNSAxMDUuMDM4Yy4wMzcuMTcxLjExMS4zNjUuMTEzLjU2LjAwMy4zNzEtLjAzNy43NDItLjA1OCAxLjExM3YuMzIybC4zMTQtLjI0Yy44Ni0uNzA4IDEuNzg0LTEuMzExIDIuODYtMS42MzYgMS45NDItLjU4NSAzLjg4Mi40NzggNC41MTUgMi40NTYuMjQuNzUyLjMzNSAxLjUyNS4zNDQgMi4zMTEuMDIgMS43NDYuMDMyIDMuNDkyLjA1IDUuMjM4LjAwNi42MjcuMDc4LjczOS42NzEuOTJhNy40IDcuNCAwIDAwMS4wMy4yMjljLjE5MS4wMy4yNzMuMTA1LjI2My4yOTJsLjAwMi4xNzJjLS4wMDcuNzIzLS4wNTcuNzU2LS43NTguNzU0LTEuNjc4LS4wMDMtMy4zNTUuMDA3LTUuMDMzLjAyMS0uNS4wMDQtLjUwMS4wMTktLjU1MS0uNDc1bC0uMDEtLjI4NGMuMDMxLS40MjYuMDQxLS40MjIuNDYtLjQ4NC4yODItLjA0Mi41NjItLjEwNy44MzctLjE3OS4yODMtLjA3My40MTktLjI4Mi40NTctLjU2Mi4wMTktLjE0Mi4wNDQtLjI4NC4wNDMtLjQyNi0uMDI0LTEuOTA4LjAwNy0zLjgxOC0uMDk3LTUuNzIzLS4wODQtMS41NDEtMS4yNi0yLjQ1OS0yLjgwNy0yLjM1NGE0LjA0NyA0LjA0NyAwIDAwLTIuMDcxLjc0M2MtLjQxMy4yODktLjQ5Ni43MDYtLjQ5NCAxLjE1NS4wMDggMS43ODQuMDI1IDMuNTY4LjA0NCA1LjM1My4wMDQuMzkxLjAxNS43ODIuMDUyIDEuMTcuMDM5LjQyNC4xODguNTk1LjYwNC42ODcuMzk4LjA4OC44MDQuMTM5IDEuMjI5LjIxbC4wMzYuMzI4Yy4wMTQuNzY1LS4wNjYuODIyLS44MDkuODE5LTEuNzM1LS4wMDctMy40Ny4wMDQtNS4yMDQuMDIzLS4yNzMuMDA0LS4zODktLjA4Mi0uMzgyLS4zNDhsLS4wMDQtLjExNGMtLjA0NS0uNjg5LS4wMjUtLjcxNS42MjctLjgyN2wuMzA4LS4wNjJjLjcwNi0uMTU5Ljg4Ny0uMzQ3Ljg5Ny0xLjA2NC4wMzMtMi4yNzEuMDQ1LTQuNTQxLjA2OC02LjgxMi4wMDMtLjMyNi0uMTItLjU3OS0uNDI0LS43MTRhNTMuODggNTMuODggMCAwMC0xLjI4Ny0uNTQ0Yy0uMjM4LS4wOTgtLjUxLS4xNi0uNTE5LS40ODktLjAwNi0uMjMyLjI0Mi0uNDM3LjU4MS0uNTA2LjY4MS0uMTM4IDEuMzY4LS4yNTMgMi4wNDEtLjQyMi42Ny0uMTY3IDEuMzI4LS4zOTEgMi4wNjItLjYxMXoiIGZpbGw9IiM0RjM3MkIiIGNsaXAtcnVsZT0iZXZlbm9kZCIgZmlsbC1ydWxlPSJldmVub2RkIi8+PHBhdGggZD0iTTg0Ljg2NSAxMTAuOTdjLS4wMzIgMi4xMjEtLjU4MyAzLjgzNi0yLjA4MyA1LjEyMy0xLjkgMS42MzMtNC44NjQgMi4xODgtNy4yODcuOTY3LTEuMDM0LS41MjEtMS43OTQtMS4zMi0yLjI4OS0yLjM1Ny0uNzU5LTEuNTk1LS45NDktMy4yNzItLjU1My00Ljk5LjM5Mi0xLjY5OSAxLjQyMS0yLjkzIDIuOTYxLTMuNzI3IDEuNTg0LS44MTkgMy4yNTItMS4xMzkgNS4wMTEtLjcwOSAyLjIyNS41NDMgMy44MjQgMi4zNTcgNC4xNDIgNC42NjcuMDU3LjQwNS4wNzkuODE1LjA5OCAxLjAyNnptLTIuNTc3IDEuMTQ5bC0uMDg2LS4wMWMwLS4yLjAxMS0uNC0uMDAyLS42LS4wNzMtMS4yNDYtLjM1My0yLjQzMy0xLjA3NS0zLjQ3Ni0uNjg1LS45ODgtMS42MTgtMS41NzEtMi44MzItMS42NTYtMS4zNTktLjA5Ni0yLjUwMS42NjQtMi45MDIgMi4wNTItLjYwMiAyLjA4NC0uMzk4IDQuMTE1LjY2IDYuMDI0LjQ2MS44MzIgMS4xNDQgMS40NDYgMi4wNTkgMS43NjkgMS43OTMuNjMxIDMuMzgzLS4xODYgMy44NS0yLjAyMi4xNzItLjY3OC4yMjItMS4zODcuMzI4LTIuMDgxeiIgZmlsbD0iIzRGMzgyQiIgY2xpcC1ydWxlPSJldmVub2RkIiBmaWxsLXJ1bGU9ImV2ZW5vZGQiLz48cGF0aCBkPSJNNDAuODE5IDExMS4xMzRjLS4wMzcgMS41MjItLjM5NiAyLjkyOS0xLjMzNiA0LjE1Mi0xLjAwNyAxLjMxLTIuMzkxIDIuMDEtMy45NjUgMi4zMDUtMS44NjEuMzQ4LTMuNjA5LjAzMi01LjEwNC0xLjIxNy0uNzEtLjU5NC0xLjE5NS0xLjM1NS0xLjUxNS0yLjIyMS0uNTI1LTEuNDItLjY1Ni0yLjg3NS0uMzMzLTQuMzU4LjM0NS0xLjU4NyAxLjI0MS0yLjggMi42My0zLjYxNCAxLjYwNi0uOTM5IDMuMzM5LTEuMzU4IDUuMTktLjkzNiAyLjM4LjU0NCAzLjc1NCAyLjA5NSA0LjI2MiA0LjQ0My4xMDIuNDc0LjExNi45NjQuMTcxIDEuNDQ2em0tMi42MDYgMS4wMDRsLS4wNjktLjAxdi0uMjg2Yy0uMDM5LTEuMzk2LS4zMTItMi43MjYtMS4xNDUtMy44ODYtLjYxNy0uODYxLTEuNDQzLTEuNDAxLTIuNTAyLTEuNTUyLTEuNzI2LS4yNDYtMi44NTQuNzc4LTMuMjI4IDIuMTY5LS40ODggMS44MTctLjMzNSAzLjYxMi40MiA1LjMzNS40NzEgMS4wNzQgMS4yMTUgMS45MTEgMi4zNTggMi4zMTcgMS43ODIuNjMzIDMuMzk2LS4yMDUgMy44NDctMi4wMzQuMTY2LS42NjkuMjE2LTEuMzY3LjMxOS0yLjA1M3oiIGZpbGw9IiM0RjM3MkIiIGNsaXAtcnVsZT0iZXZlbm9kZCIgZmlsbC1ydWxlPSJldmVub2RkIi8+PHBhdGggZD0iTTgyLjM2MiAzMy41NDRjMS4yMjcgMy41NDcgMi4xMDkgNy4xNjggMi40IDEwLjkyLjM2IDQuNjU2LjE5NiA5LjI4LS43ODYgMTMuODU5bC0uMTI2LjM2NmMtLjMwOC4wMDEtLjYyMi0uMDM4LS45MjMuMDA5LTIuNTQzLjQtNS4wODMuODE0LTcuNjI0IDEuMjI2LTIuNjI3LjQyNi01LjI1Ni44MzUtNy44NzggMS4yODktLjkyOS4xNi0yLjA3OS0uMDMxLTIuNDU0IDEuMjUzbC0uMTguMDYxLjEyNy03LjY3OC0uMTI5LTE4LjUyNiAxLjIyNC0uMjFjMi4wMDEtLjMyNyA0LjAwMi0uNjYgNi4wMDYtLjk3OSAyLjM5LS4zNzkgNC43ODItLjc0OSA3LjE3NC0xLjExOSAxLjA1Ni0uMTYyIDIuMTEzLS4zMTMgMy4xNjktLjQ3MXoiIGZpbGw9IiM0Mzk5MzQiIGNsaXAtcnVsZT0iZXZlbm9kZCIgZmlsbC1ydWxlPSJldmVub2RkIi8+PHBhdGggZD0iTTYyLjI2NSA4NC45MTFjLTEuMjkxLTEuMTEtMi42MjctMi4xNzEtMy44NjQtMy4zMzktNi42NTgtNi4yOC0xMS41MjktMTMuNjczLTEzLjkyOC0yMi41ODYtLjY2MS0yLjQ1Mi0xLjEwMS00Ljk0NS0xLjI0My03LjQ3OS0uMS0xLjc3NC0uMjQzLTMuNTYzLS4xMTctNS4zMjguMzMzLTQuNjkzIDEuMDEyLTkuMzQxIDIuMzg4LTEzLjg2MmwuMDc2LS4xMDVjLjEzNC4xNzguMzI2LjMzNi4zOTQuNTM3IDEuMzQ0IDMuOTU2IDIuNjc3IDcuOTE2IDQuMDA0IDExLjg3OSA0LjE2OSAxMi40NTEgOC4zMzMgMjQuOTA1IDEyLjUwOSAzNy4zNTQuMDgyLjI0My4yOTMuNDQyLjQ0NS42NjFsLS42NjQgMi4yNjh6IiBmaWxsPSIjNDVBNTM4IiBjbGlwLXJ1bGU9ImV2ZW5vZGQiIGZpbGwtcnVsZT0iZXZlbm9kZCIvPjxwYXRoIGQ9Ik04Mi4zNjIgMzMuNTQ0Yy0xLjA1Ny4xNTctMi4xMTQuMzA5LTMuMTY5LjQ3MS0yLjM5Mi4zNy00Ljc4NC43NC03LjE3NCAxLjExOS0yLjAwMy4zMTgtNC4wMDQuNjUxLTYuMDA2Ljk3OWwtMS4yMjQuMjEtLjAxLS43OThjLS4wNDEtLjY1Ni0uMTA5LTEuMzEyLS4xMTgtMS45NjhsLS4xMzctMTIuNTU0Yy0uMDMyLTIuNjE5LS4wOC01LjIzOC0uMTMzLTcuODU2YTE5OC40MjMgMTk4LjQyMyAwIDAwLS4xNDEtNC44OGMtLjA0LS44NzMtLjE4MS0xLjc0Mi0uMjM3LTIuNjE1LS4wMzMtLjUwMi4wMTEtMS4wMDguMDIyLTEuNTEyLjYyNCAxLjIwOSAxLjIzNSAyLjQyNyAxLjg3NiAzLjYyNyAxLjAxMyAxLjg5NyAyLjYyOCAzLjI5NSA0LjA4MyA0LjgyIDUuNzQ2IDYuMDMxIDkuODI1IDEzLjAzOSAxMi4zNjggMjAuOTU3eiIgZmlsbD0iIzQ2QTAzNyIgY2xpcC1ydWxlPSJldmVub2RkIiBmaWxsLXJ1bGU9ImV2ZW5vZGQiLz48cGF0aCBkPSJNNjQuNzkyIDYyLjUyN2wuMTgtLjA2MWMuMzc1LTEuMjg0IDEuNTI1LTEuMDkzIDIuNDU0LTEuMjUzIDIuNjIyLS40NTQgNS4yNTEtLjg2MyA3Ljg3OC0xLjI4OSAyLjU0MS0uNDExIDUuMDgxLS44MjUgNy42MjQtMS4yMjYuMzAxLS4wNDcuNjE1LS4wMDguOTIzLS4wMDktLjQ3NSAxLjY5Ni0uODQ5IDMuNDI5LTEuNDUyIDUuMDc4LS42ODUgMS44Ny0xLjUxMyAzLjY5Ni0yLjM5MiA1LjQ4NmEzNy41OTUgMzcuNTk1IDAgMDEtNC44NTMgNy40NThjLTEuNDY2IDEuNzYyLTMuMSAzLjM5My00LjczNyA1LjAwMi0uOTA2Ljg4OS0xLjk3MiAxLjYxNC0yLjk2NiAyLjQxNGwtLjI1OC0uMTc2LS45MjctLjc5Mi0uOTU5LTIuMTA0YTMxLjY1IDMxLjY1IDAgMDEtMS4wNjUtNy41MTZsLjAxOC0uNDI4LjEzMS0xLjg1NGMuMDQzLS42MzMuMTAxLTEuMjY1LjEyOC0xLjg5OC4wOTYtMi4yNzYuMTgyLTQuNTU0LjI3My02LjgzMnoiIGZpbGw9IiM0MDk0MzMiIGNsaXAtcnVsZT0iZXZlbm9kZCIgZmlsbC1ydWxlPSJldmVub2RkIi8+PHBhdGggZD0iTTY0Ljc5MiA2Mi41MjdjLS4wOSAyLjI3OC0uMTc2IDQuNTU3LS4yNzMgNi44MzUtLjAyNy42MzQtLjA4NCAxLjI2Ni0uMTI4IDEuODk4bC0uNTg0LjIyMWMtMS4yOTgtMy44MjEtMi41OTctNy42MDItMy44NjctMTEuMzkyLTIuMTAxLTYuMjcxLTQuMTc2LTEyLjU1MS02LjI3NC0xOC44MjRhMzQyMy4wMTMgMzQyMy4wMTMgMCAwMC01LjExOC0xNS4xNzZjLS4wODEtLjIzNi0uMzExLS40MjItLjQ3MS0uNjMxbDMuNzQtNi44NzdjLjEyOS4yMjMuMjk4LjQzMi4zNzkuNjcyIDEuNzMgNS4xMiAzLjQ1NyAxMC4yNDEgNS4xNjkgMTUuMzY3IDIuMjI4IDYuNjcgNC40NDEgMTMuMzQzIDYuNjY3IDIwLjAxNC4wODkuMjY2LjIzNS41MTIuMzc1LjgxMWwuNTEyLS41OTYtLjEyNyA3LjY3OHoiIGZpbGw9IiM0RkFBNDEiIGNsaXAtcnVsZT0iZXZlbm9kZCIgZmlsbC1ydWxlPSJldmVub2RkIi8+PHBhdGggZD0iTTQ4LjA3NiAyNS40NThjLjE2MS4yMDkuMzkxLjM5NS40NzEuNjMxYTMzNzkuNzc0IDMzNzkuNzc0IDAgMDE1LjExOCAxNS4xNzZjMi4wOTggNi4yNzMgNC4xNzMgMTIuNTUzIDYuMjc0IDE4LjgyNCAxLjI3IDMuNzkgMi41NjkgNy41NyAzLjg2NyAxMS4zOTJsLjU4NC0uMjIxLS4xMzEgMS44NTQtLjExOS40MjdjLS4yMDMgMi4wMjktLjM3NCA0LjA2Mi0uNjIyIDYuMDg3LS4xMjQgMS4wMTUtLjM4OSAyLjAxMS0uNTkgMy4wMTUtLjE1MS0uMjE5LS4zNjMtLjQxOC0uNDQ1LS42NjEtNC4xNzctMTIuNDQ5LTguMzQtMjQuOTAzLTEyLjUwOS0zNy4zNTRhMzAxMC43OTEgMzAxMC43OTEgMCAwMC00LjAwNC0xMS44NzljLS4wNjgtLjIwMS0uMjYtLjM1OS0uMzk0LS41MzdsMi41LTYuNzU0eiIgZmlsbD0iIzRBQTczQyIgY2xpcC1ydWxlPSJldmVub2RkIiBmaWxsLXJ1bGU9ImV2ZW5vZGQiLz48cGF0aCBkPSJNNjQuOTE4IDU0Ljg0OWwtLjUxMi41OTZjLS4xNC0uMjk5LS4yODYtLjU0NS0uMzc1LS44MTEtMi4yMjYtNi42NzEtNC40MzktMTMuMzQ0LTYuNjY3LTIwLjAxNGE0NjE4LjA1NyA0NjE4LjA1NyAwIDAwLTUuMTY5LTE1LjM2N2MtLjA4MS0uMjQtLjI1LS40NDktLjM3OS0uNjcybDQuNjI1LTYuMDg0Yy4xNDYuMTk0LjM1NC4zNjcuNDI5LjU4NiAxLjI4NCAzLjc2IDIuNTU2IDcuNTIzIDMuODIyIDExLjI4OSAxLjE4MiAzLjUxOCAyLjM0NiA3LjA0IDMuNTQyIDEwLjU1Mi4wOC4yMzUuMzU5LjQwMS41NDUuNjAxbC4wMS43OTguMTI5IDE4LjUyNnoiIGZpbGw9IiM1N0FFNDciIGNsaXAtcnVsZT0iZXZlbm9kZCIgZmlsbC1ydWxlPSJldmVub2RkIi8+PHBhdGggZD0iTTY0Ljc3OSAzNS41MjVjLS4xODctLjE5OS0uNDY1LS4zNjUtLjU0NS0uNjAxLTEuMTk1LTMuNTEyLTIuMzYtNy4wMzQtMy41NDItMTAuNTUyYTI0OTUuNTgxIDI0OTUuNTgxIDAgMDAtMy44MjItMTEuMjg5Yy0uMDc1LS4yMTktLjI4My0uMzkyLS40MjktLjU4NiAxLjUwNC0xLjQ3MyAyLjk2MS0yLjk5OSA0LjUyNi00LjQwNCAxLjM5MS0xLjI0OCAyLjUwOS0yLjU4NiAyLjU2MS00LjU1OWwuMTEtLjM5My4zOTYuOTk4Yy0uMDEuNTA0LS4wNTUgMS4wMS0uMDIyIDEuNTEyLjA1Ny44NzMuMTk4IDEuNzQyLjIzNyAyLjYxNS4wNzMgMS42MjUuMTA4IDMuMjUzLjE0MSA0Ljg4LjA1MyAyLjYxOC4xMDEgNS4yMzcuMTMzIDcuODU2bC4xMzcgMTIuNTU0Yy4wMS42NTcuMDc5IDEuMzEzLjExOSAxLjk2OXoiIGZpbGw9IiM2MEIyNEYiIGNsaXAtcnVsZT0iZXZlbm9kZCIgZmlsbC1ydWxlPSJldmVub2RkIi8+PHBhdGggZD0iTTYyLjkyOSA4Mi42NDJjLjIwMS0xLjAwNC40NjYtMiAuNTktMy4wMTUuMjQ4LTIuMDI0LjQxOS00LjA1OC42MjItNi4wODdsLjA1MS0uMDA4LjA1LjAwOWEzMS42NSAzMS42NSAwIDAwMS4wNjUgNy41MTZjLS4xMzUuMTc4LS4zMjQuMzM1LS4zOTYuNTM1LS41NTUgMS41NjYtMS4wNzkgMy4xNDUtMS42MzcgNC43MS0uMDc2LjIxNC0uMjkuMzgxLS40MzkuNTY4bC0uNTcxLTEuOTYuNjY1LTIuMjY4eiIgZmlsbD0iI0E5QUE4OCIgY2xpcC1ydWxlPSJldmVub2RkIiBmaWxsLXJ1bGU9ImV2ZW5vZGQiLz48cGF0aCBkPSJNNjIuODM1IDg2Ljg3MWMuMTQ5LS4xODguMzYzLS4zNTQuNDM5LS41NjguNTU4LTEuNTY1IDEuMDgyLTMuMTQ0IDEuNjM3LTQuNzEuMDcxLS4yLjI2MS0uMzU3LjM5Ni0uNTM1bC45NTkgMi4xMDRjLS4xODkuMjY4LS40NTEuNTExLS41NTYuODFsLTEuODM2IDUuMzkyYy0uMDc2LjIxNy0uMzMzLjM2OS0uNTA3LjU1MmwtLjUzMi0zLjA0NXoiIGZpbGw9IiNCNkI1OTgiIGNsaXAtcnVsZT0iZXZlbm9kZCIgZmlsbC1ydWxlPSJldmVub2RkIi8+PHBhdGggZD0iTTYzLjM2NyA4OS45MTVjLjE3My0uMTgzLjQzMS0uMzM1LjUwNy0uNTUybDEuODM2LTUuMzkyYy4xMDQtLjI5OS4zNjctLjU0Mi41NTYtLjgxbC45MjguNzkxYy0uNDQ4LjQ0My0uNjk3Ljk1NS0uNTQ3IDEuNjAybC0uMjgyLjkyM2MtLjEyOC4xNTgtLjMxNC4yOTYtLjM3Ny40NzctLjY0MSAxLjgzNi0xLjI1MiAzLjY4Mi0xLjg5OCA1LjUxNy0uMDgyLjIzMi0uMzA5LjQxNS0uNDY4LjYyMWwtLjI1NS0zLjE3N3oiIGZpbGw9IiNDMkMxQTciIGNsaXAtcnVsZT0iZXZlbm9kZCIgZmlsbC1ydWxlPSJldmVub2RkIi8+PHBhdGggZD0iTTYzLjYyMSA5My4wOTFjLjE2LS4yMDYuMzg3LS4zODkuNDY4LS42MjEuNjQ2LTEuODM1IDEuMjU4LTMuNjgxIDEuODk4LTUuNTE3LjA2My0uMTgxLjI0OS0uMzE4LjM3Ny0uNDc3bC0uMzg5IDQuMjM2Yy0uMTA0LjEyLS4yNTQuMjI1LS4zMDQuMzY0bC0xLjI5NCAzLjcwOGMtLjA5MS4yNTMtLjI2NS40NzktLjQwMS43MTYtLjEyMS0uMTU4LS4zMzctLjMxMS0uMzQ3LS40NzUtLjAzOC0uNjQyLS4wMTEtMS4yODktLjAwOC0xLjkzNHoiIGZpbGw9IiNDRUNEQjciIGNsaXAtcnVsZT0iZXZlbm9kZCIgZmlsbC1ydWxlPSJldmVub2RkIi8+PHBhdGggZD0iTTYzLjk3NyA5NS41MDFjLjEzNi0uMjM3LjMxLS40NjMuNDAxLS43MTZsMS4yOTQtMy43MDhjLjA1LS4xNC4yMDEtLjI0NC4zMDQtLjM2NGwuMDEgMi43OC0uOTMxIDIuMzg3LTEuMDc4LS4zNzl6IiBmaWxsPSIjREJEQUM3IiBjbGlwLXJ1bGU9ImV2ZW5vZGQiIGZpbGwtcnVsZT0iZXZlbm9kZCIvPjxwYXRoIGQ9Ik02NS4wNTUgOTUuODhsLjkzMS0yLjM4Ny4xOTIgMi44MjQtMS4xMjMtLjQzN3oiIGZpbGw9IiNFQkU5REMiIGNsaXAtcnVsZT0iZXZlbm9kZCIgZmlsbC1ydWxlPSJldmVub2RkIi8+PHBhdGggZD0iTTY2LjY0NiA4NS41NTRjLS4xNDktLjY0Ni4wOTktMS4xNTguNTQ3LTEuNjAybC4yNTguMTc2LS44MDUgMS40MjZ6IiBmaWxsPSIjQ0VDREI3IiBjbGlwLXJ1bGU9ImV2ZW5vZGQiIGZpbGwtcnVsZT0iZXZlbm9kZCIvPjxwYXRoIGQ9Ik02NC4yNDIgNzMuNTQybC0uMDUtLjAwOS0uMDUxLjAwOC4xMTktLjQyNy0uMDE4LjQyOHoiIGZpbGw9IiM0RkFBNDEiIGNsaXAtcnVsZT0iZXZlbm9kZCIgZmlsbC1ydWxlPSJldmVub2RkIi8+PC9zdmc+;" vertex="1" parent="1">
          <mxGeometry x="1040" y="272.5" width="115" height="115" as="geometry" />
        </mxCell>
        <mxCell id="HTIkX7PV5lFFl-K6tS0R-543" value="" style="html=1;labelBackgroundColor=#ffffff;startArrow=classic;startFill=1;startSize=6;endArrow=classic;endFill=1;endSize=6;jettySize=auto;orthogonalLoop=1;strokeWidth=1;fontSize=14;rounded=0;entryX=-0.009;entryY=0.528;entryDx=0;entryDy=0;entryPerimeter=0;exitX=1.027;exitY=0.576;exitDx=0;exitDy=0;exitPerimeter=0;" edge="1" parent="1" source="HTIkX7PV5lFFl-K6tS0R-525" target="HTIkX7PV5lFFl-K6tS0R-528">
          <mxGeometry width="60" height="60" relative="1" as="geometry">
            <mxPoint x="980" y="474" as="sourcePoint" />
            <mxPoint x="1040" y="414" as="targetPoint" />
          </mxGeometry>
        </mxCell>
        <mxCell id="HTIkX7PV5lFFl-K6tS0R-547" value="" style="html=1;labelBackgroundColor=#ffffff;startArrow=classic;startFill=1;startSize=6;endArrow=classic;endFill=1;endSize=6;jettySize=auto;orthogonalLoop=1;strokeWidth=1;fontSize=14;rounded=0;exitX=1.057;exitY=0.553;exitDx=0;exitDy=0;exitPerimeter=0;" edge="1" parent="1" source="495">
          <mxGeometry width="60" height="60" relative="1" as="geometry">
            <mxPoint x="180" y="390" as="sourcePoint" />
            <mxPoint x="290" y="335" as="targetPoint" />
          </mxGeometry>
        </mxCell>
      </root>
    </mxGraphModel>
  </diagram>
</mxfile>
